<?xml version="1.0" standalone="no"?>
<!DOCTYPE svg PUBLIC "-//W3C//DTD SVG 1.1//EN" "http://www.w3.org/Graphics/SVG/1.1/DTD/svg11.dtd" >
<svg xmlns="http://www.w3.org/2000/svg">
<metadata>Generated by IcoMoon</metadata>
<defs>
<font id="icomoon" horiz-adv-x="1024">
<font-face units-per-em="1024" ascent="960" descent="-64" />
<missing-glyph horiz-adv-x="1024" />
<glyph unicode="&#x20;" horiz-adv-x="512" d="" />
<glyph unicode="&#xe900;" glyph-name="icono-form1" d="M838.38 921.017c-0.936 0.435-1.895 0.798-2.876 1.104-63.836 23.102-143.141-8.428-227.97-68.271-81.176-57.266-167.858-144.339-248.167-250.846-27.483 7.582-56.81 4.518-83.506-5.265-32.891-12.054-62.77-33.624-82.337-61.569l-62.049-88.614c-8.466-12.424-1.549-32.162 12.782-36.463l83.581-24.592c-10.521-25.148-18.713-42.345-32.617-78.501-3.909-9.918-0.249-22.248 8.419-28.363l254.639-178.3c8.689-6.084 21.549-5.275 29.532 1.789 29.22 25.431 42.578 39.011 62.611 57.499l51.695-70.13c8.943-11.996 29.859-11.747 38.636 0.46l62.049 88.614c19.567 27.945 29.618 63.399 29.695 98.429 0.063 28.433-7.089 57.038-23.613 80.271 72.618 111.893 124.791 223.128 150.84 318.995 27.221 100.18 29.726 185.487-13.816 237.572-2.050 2.551-4.632 4.666-7.529 6.182v0zM812.264 877.858c21.39-32.211 25.173-99.526 1.161-187.9-25.383-93.416-78.168-207.037-153.573-320.291-6.276-9.381-4.72-23.188 3.475-30.863 13.65-12.968 21.361-35.287 21.303-60.771-0.054-25.485-8.347-52.96-21.006-71.039l-42.874-61.231-47.785 64.641c-7.815 10.476-24.85 12.301-34.791 3.727-31.726-27.614-44.249-40.988-67.929-62.487l-223.42 156.441c12.104 29.604 20.388 45.947 35.486 85.204 4.657 12.274-2.885 27.658-15.402 31.418l-77.086 22.795 42.874 61.231c12.659 18.078 35.641 35.269 59.57 44.036 23.927 8.77 47.538 9.158 64.393 0.766 10.015-5.076 23.521-1.815 30.19 7.29 80.634 109.593 169.35 198.054 248.45 253.858 74.831 52.79 139.381 72.258 176.965 63.175zM710.142 732.014c-43.040 30.137-103.208 19.362-133.505-23.907s-19.844-103.493 23.196-133.63c43.040-30.137 103.207-19.362 133.505 23.907s19.844 103.493-23.196 133.63zM682.565 692.63c21.866-15.311 26.991-44.832 11.598-66.815s-44.887-27.264-66.752-11.953c-21.868 15.312-26.991 44.832-11.598 66.815s44.885 27.265 66.752 11.953zM234.94 220.112c-9.007 4.534-20.874 2.524-27.946-4.736-10.279-10.568-20.184-22.312-29.129-35.087-27.033-38.607-42.658-80.136-46.216-119.418s5.274-77.321 30.604-103.508c2.095-2.157 4.602-3.912 7.345-5.143 33.272-14.847 72.038-10.135 107.733 6.643s69.377 45.665 96.41 84.273c8.946 12.776 16.595 26.103 23.008 39.373 4.425 9.913 1.088 22.66-7.606 29.066-8.692 6.409-21.854 5.812-30.006-1.355-31.427-29.363-61.559-28.429-90.23-8.354s-39.856 48.073-23.010 87.645c5.223 13.098-1.336 25.216-10.958 30.601v0zM198.952 119.21c8.12-22.593 22.346-42.7 42.379-56.728s43.794-20.518 67.801-20.421c-16.861-17.093-34.605-31.755-52.2-40.026-24.604-11.563-46.237-12.514-62.785-6.937-10.9 13.643-17.405 34.296-14.955 61.371 1.754 19.363 9.463 41.051 19.759 62.741z" />
<glyph unicode="&#xe901;" glyph-name="icono-form2" d="M262.702 306.832h218.362c19.41 0 35.146-18.222 35.146-40.7s-15.735-40.7-35.146-40.7h-218.362c-19.41 0-35.146 18.222-35.146 40.7s15.735 40.7 35.146 40.7v0zM227.556 454.955v0c0 22.478 15.735 40.7 35.146 40.7h498.597c19.41 0 35.146-18.222 35.146-40.7s-15.735-40.7-35.146-40.7h-498.597c-19.41 0-35.146 18.222-35.146 40.7v0zM227.556 643.78v0c0 22.478 15.735 40.7 35.146 40.7h498.597c19.41 0 35.146-18.222 35.146-40.7s-15.735-40.7-35.146-40.7h-498.597c-19.41 0-35.146 18.222-35.146 40.7v0zM953.708 158.523c0-27.762-19.513-50.358-43.486-50.358h-796.444c-23.973 0-43.486 22.597-43.486 50.358v592.917c0 27.775 19.513 50.358 43.486 50.358h796.444c23.973 0 43.486-22.584 43.486-50.358v-592.917zM113.778 883.2c-62.839 0-113.778-58.989-113.778-131.759v-592.917c0-72.771 50.938-131.759 113.778-131.759h796.444c62.839 0 113.778 58.989 113.778 131.759v592.917c0 72.771-50.938 131.759-113.778 131.759h-796.444z" />
<glyph unicode="&#xe902;" glyph-name="icono-form3" d="M893.615 956.305h-706.694c-85.722 0-155.473-69.068-155.473-153.951v-704.44c0-84.883 69.751-153.951 155.473-153.951h706.694c54.543 0 98.937 43.96 98.937 97.969v816.405c0 54.023-44.395 97.969-98.937 97.969zM186.921 27.936c-38.967 0-70.669 31.392-70.669 69.978v704.44c0 38.586 31.702 69.978 70.669 69.978h565.355c7.802 0 14.134-6.284 14.134-13.996v-816.405c0-7.726-6.332-13.996-14.134-13.996h-565.355zM907.749 41.931c0-7.726-6.332-13.996-14.134-13.996h-43.532c0.664 4.577 1.131 9.223 1.131 13.996v816.405c0 4.759-0.452 9.405-1.131 13.996h43.532c7.802 0 14.134-6.284 14.134-13.996v-816.405zM678.851 289.709c0 71.322-57.581 129.417-122.131 160.641 36.268 33.715 56.253 86.955 56.253 155.687 0 93.714-77.001 169.976-171.656 169.976s-171.67-76.248-171.67-169.976c0-56.542 19.264-115.478 59.687-154.007-65.92-30.79-125.537-89.74-125.537-162.321 0-15.787-1.060-31.21-2.078-46.157-2.968-43.358-5.781-84.295 21.766-113.476 16.254-17.215 39.646-25.948 69.525-25.948h296.614c29.879 0 53.285 8.733 69.525 25.948 27.533 29.181 24.734 70.132 21.766 113.476-1.004 14.947-2.064 30.37-2.064 46.157zM441.331 692.040c47.886 0 86.853-38.572 86.853-86.003 0-112.93-65.369-112.93-86.853-112.93-82.669 0-86.867 94.078-86.867 112.93 0 47.417 38.967 86.003 86.867 86.003zM596.931 188.577c-1.569-0.252-3.929-0.476-7.293-0.476h-296.614c-3.35 0-5.71 0.238-7.293 0.476-2.12 9.545-0.565 32.26 0.608 49.292 1.074 15.563 2.276 33.212 2.276 51.84 0 52.399 84.026 101.622 134.696 101.622h36.027c50.67 0 134.696-49.222 134.696-101.622 0-18.628 1.216-36.277 2.276-51.84 1.187-17.033 2.728-39.761 0.622-49.292z" />
<glyph unicode="&#xe903;" glyph-name="icono-form4" d="M531.648 732.48h304.832c22.080 0 40 17.92 40 40s-17.92 40-40 40h-304.832c-22.080 0-40-17.92-40-40s17.92-40 40-40zM531.648 584.992h304.832c22.080 0 40 17.92 40 40s-17.92 40-40 40h-304.832c-22.080 0-40-17.92-40-40s17.92-40 40-40zM531.648 437.504h304.832c22.080 0 40 17.92 40 40s-17.92 40-40 40h-304.832c-22.080 0-40-17.92-40-40s17.92-40 40-40zM531.648 290.016h304.832c22.080 0 40 17.92 40 40s-17.92 40-40 40h-304.832c-22.080 0-40-17.92-40-40s17.92-40 40-40zM984 960h-944c-22.080 0-40-17.92-40-40v-944c0-22.080 17.92-40 40-40h944c22.080 0 40 17.92 40 40v944c0 22.080-17.92 40-40 40zM944 16h-864v864h864v-864zM250.848 104.064c7.072-12.672 20.448-20.576 34.976-20.576s27.904 7.872 34.976 20.576l98.336 176.992c3.296 5.984 5.024 12.64 5.024 19.424v472c0 22.080-17.92 40-40 40h-196.672c-22.080 0-40-17.92-40-40v-472c0-6.816 1.728-13.472 5.024-19.424l98.336-176.992zM285.824 205.888l-46.72 84.128h93.472l-46.752-84.128zM344.16 732.48v-362.496h-116.672v362.496h116.672z" />
<glyph unicode="&#xe904;" glyph-name="icono-form5" d="M512 954.667c-279.467 0-506.667-227.2-506.667-506.667s227.2-506.667 506.667-506.667c279.467 0 506.667 227.2 506.667 506.667s-227.2 506.667-506.667 506.667zM512 3.2c-245.333 0-444.8 199.467-444.8 444.8s199.467 444.8 444.8 444.8c245.333 0 444.8-199.467 444.8-444.8s-199.467-444.8-444.8-444.8zM746.667 608l-299.733-299.733-152.533 152.533c-14.933 14.933-39.467 14.933-54.4 0s-14.933-39.467 0-54.4l179.2-179.2c7.467-7.467 17.067-11.733 27.733-11.733s20.267 4.267 27.733 11.733l326.4 326.4c14.933 14.933 14.933 39.467 0 54.4s-38.4 14.933-54.4 0z" />
<glyph unicode="&#xe905;" glyph-name="icono-form6" d="M512 960c-282.624 0-512-229.376-512-512s229.376-512 512-512c282.624 0 512 229.376 512 512s-229.376 512-512 512zM563.2 601.6h-102.4v102.4h102.4v-102.4zM563.2 192h-102.4v307.2h102.4v-307.2z" />
<glyph unicode="&#xe906;" glyph-name="icono-form7" d="M204.8 82.76l379.751 379.751-379.751 380.58 116.91 116.91 497.49-497.49-497.49-497.49z" />
<glyph unicode="&#xe907;" glyph-name="icono-form8" d="M518.024 935.906c-272.649 0-493.929-221.28-493.929-493.929s221.28-493.929 493.929-493.929c272.649 0 493.929 221.28 493.929 493.929s-221.28 493.929-493.929 493.929zM764.988 392.584h-197.572v-197.572h-98.786v197.572h-197.572v98.786h197.572v197.572h98.786v-197.572h197.572v-98.786z" />
<glyph unicode="&#xe908;" glyph-name="icono-form9" d="M512 954.178c-104.423 0-201.121-35.2-271.304-102.603s-112.696-166.43-112.696-287.491c0-332.269 219.199-504.436 363.651-611.048 11.999-8.977 28.698-8.977 40.697 0 144.452 106.611 363.651 278.778 363.651 611.048 0 121.062-42.512 220.088-112.696 287.491s-166.881 102.603-271.304 102.603zM512 889.162c89.055 0 167.598-29.308 224.348-83.81s92.87-134.777 92.87-241.269c0-291.118-176.565-438.145-317.217-542.984-140.653 104.84-317.217 251.867-317.217 542.984 0 106.492 36.119 186.767 92.87 241.269s135.293 83.81 224.348 83.81zM512 775.384c-110.255 0-200.348-87.712-200.348-195.047s90.093-195.047 200.348-195.047c110.253 0 200.348 87.711 200.348 195.047s-90.095 195.047-200.348 195.047zM512 710.368c74.16 0 133.565-57.833 133.565-130.031s-59.405-130.031-133.565-130.031c-74.162 0-133.565 57.831-133.565 130.031 0 72.198 59.403 130.031 133.565 130.031z" />
<glyph unicode="&#xe909;" glyph-name="icono-form10" d="M69.818 906.62c-38.277 0-69.818-34.566-69.818-76.513v-765.131c0-41.947 31.541-76.513 69.818-76.513h721.455c8.393-0.13 16.2 4.702 20.431 12.647s4.231 17.77 0 25.715c-4.231 7.945-12.038 12.777-20.431 12.647h-721.455c-13.296 0-23.273 10.934-23.273 25.504v765.131c0 14.571 9.977 25.504 23.273 25.504h128v-58.182c-13.891-8.826-23.273-24.972-23.273-43.836 0-28.171 20.839-51.009 46.545-51.009s46.545 22.837 46.545 51.009c0 18.863-9.381 35.010-23.273 43.836v58.182h244.364v-58.182c-13.891-8.826-23.273-24.972-23.273-43.836 0-28.171 20.839-51.009 46.545-51.009s46.545 22.837 46.545 51.009c0 18.863-9.381 35.010-23.273 43.836v58.182h244.364v-58.182c-13.891-8.826-23.273-24.972-23.273-43.836 0-28.171 20.839-51.009 46.545-51.009s46.545 22.837 46.545 51.009c0 18.863-9.381 35.010-23.273 43.836v58.182h128c13.296 0 23.273-10.934 23.273-25.504v-765.131c0-14.571-9.977-25.504-23.273-25.504-8.393 0.13-16.2-4.702-20.431-12.647s-4.231-17.77 0-25.715c4.231-7.945 12.038-12.777 20.431-12.647 38.277 0 69.818 34.566 69.818 76.513v765.131c0 41.947-31.541 76.513-69.818 76.513h-884.364zM686.545 613.319c-63.99 0-116.364-57.396-116.364-127.522 0-47.398 24.006-88.809 59.273-110.785-87.777-27.345-152.364-115.988-152.364-220.772 0.001-14.085 10.42-25.503 23.273-25.504h372.364c12.853 0.001 23.271 11.419 23.273 25.504 0 104.784-64.587 193.427-152.364 220.772 35.267 21.975 59.273 63.387 59.273 110.785 0 70.126-52.373 127.522-116.364 127.522zM151.273 587.815v0zM686.545 562.311c38.835 0 69.818-33.954 69.818-76.513s-30.983-76.513-69.818-76.513c-38.835 0-69.818 33.954-69.818 76.513s30.983 76.513 69.818 76.513zM149.091 485.798c-8.316-0.425-15.793-5.681-19.613-13.786s-3.405-17.829 1.091-25.507c4.496-7.678 12.388-12.144 20.704-11.715h116.364c8.393-0.13 16.2 4.702 20.431 12.647s4.231 17.77 0 25.715c-4.231 7.945-12.038 12.777-20.431 12.647h-116.364c-0.727 0.037-1.455 0.037-2.182 0v0zM149.091 383.78c-8.316-0.425-15.793-5.681-19.613-13.786s-3.405-17.829 1.091-25.507c4.496-7.678 12.388-12.144 20.704-11.715h232.727c8.393-0.13 16.2 4.702 20.431 12.647s4.231 17.77 0 25.715c-4.231 7.945-12.038 12.777-20.431 12.647h-232.727c-0.727 0.037-1.455 0.037-2.182 0v0zM686.545 332.771c82.318 0 149.468-66.329 160.727-153.026h-321.455c11.259 86.697 78.409 153.026 160.727 153.026zM149.091 281.763c-8.316-0.425-15.793-5.681-19.613-13.786s-3.405-17.829 1.091-25.507c4.496-7.678 12.388-12.144 20.704-11.715h232.727c8.393-0.13 16.2 4.702 20.431 12.647s4.231 17.77 0 25.715c-4.231 7.945-12.038 12.777-20.431 12.647h-232.727c-0.727 0.037-1.455 0.037-2.182 0v0zM149.091 179.745c-8.316-0.425-15.793-5.681-19.613-13.786s-3.405-17.829 1.091-25.507c4.496-7.678 12.388-12.144 20.704-11.715h232.727c8.393-0.13 16.2 4.702 20.431 12.647s4.231 17.77 0 25.715c-4.231 7.945-12.038 12.777-20.431 12.647h-232.727c-0.727 0.037-1.455 0.037-2.182 0zM872.727 39.471c-12.853 0-23.273-11.419-23.273-25.504s10.42-25.504 23.273-25.504c12.853 0 23.273 11.419 23.273 25.504s-10.42 25.504-23.273 25.504z" />
<glyph unicode="&#xe90a;" glyph-name="icono-form11" d="M512 953.257c-282.319 0-512-225.504-512-502.692 0-277.186 229.681-502.691 512-502.691s512 225.505 512 502.691c0 277.187-229.681 502.692-512 502.692zM512 878.785c241.325 0 436.148-191.28 436.148-428.219 0-236.937-194.824-428.218-436.148-428.218s-436.148 191.281-436.148 428.218c0 236.939 194.824 428.219 436.148 428.219zM512 729.838c-20.945 0-37.926-16.671-37.926-37.236v-22.109c-25.003-4.777-47.891-14.53-66.962-29.672-28.378-22.535-46.816-58.236-46.816-97.165 0-42.39 25.57-76.154 53.927-93.091 20.169-12.048 40.319-19.428 59.851-26.181v-114.619c-20.178 8.762-35.353 23.137-43.258 36.073-10.801 17.671-34.147 23.401-52.147 12.798s-23.838-33.524-13.040-51.198c20.609-33.721 58.749-64.627 108.445-75.636v-23.273c0-20.566 16.981-37.236 37.926-37.236s37.926 16.671 37.926 37.236v22.109c25.014 4.949 47.885 15.105 66.962 30.255 28.378 22.535 46.816 57.653 46.816 96.582 0 42.39-25.568 76.739-53.927 93.674-20.169 12.046-40.321 19.428-59.851 26.181v114.036c20.177-8.59 35.356-22.554 43.258-35.49 6.986-11.434 19.654-18.341 33.233-18.117s26.004 7.543 32.596 19.201c6.591 11.658 6.347 25.883-0.642 37.316-20.609 33.718-58.751 64.192-108.445 75.054v23.273c0 20.566-16.979 37.236-37.926 37.236zM474.074 593.112v-88.436c-7.927 3.107-14.988 6.228-20.148 9.309-14.594 8.717-17.778 10.112-17.778 29.672 0 17.469 6.48 29.070 18.963 38.983 5.12 4.064 11.564 7.676 18.963 10.473zM549.926 397.038c7.925-3.107 14.988-6.228 20.148-9.309 14.594-8.717 17.778-10.694 17.778-30.255 0-17.469-6.482-28.488-18.963-38.4-5.12-4.066-11.566-7.561-18.963-10.473v88.436z" />
<glyph unicode="&#xe90b;" glyph-name="icono-form12" d="M781.501 960h-538.971c-44.586 0-80.846-36.259-80.846-80.846v-889.302c0-9.944 5.471-19.080 14.242-23.769 8.758-4.716 19.389-4.164 27.663 1.347l308.426 205.617 308.44-205.617c4.5-3.005 9.742-4.527 14.943-4.527 4.366 0 8.731 1.051 12.706 3.18 8.758 4.689 14.242 13.811 14.242 23.769v889.302c0 44.586-36.259 80.846-80.846 80.846zM242.53 906.103h538.971c14.876 0 26.949-12.073 26.949-26.949v-80.846h-592.868v80.846c0 14.876 12.073 26.949 26.949 26.949zM526.958 227.862c-4.527 3.032-9.728 4.527-14.943 4.527s-10.416-1.496-14.943-4.527l-281.491-187.67v704.219h592.868v-704.219l-281.491 187.67z" />
<glyph unicode="&#xe90c;" glyph-name="icono-form13" d="M787.692 644.923c0-43.503-35.266-78.769-78.769-78.769s-78.769 35.266-78.769 78.769c0 43.503 35.266 78.769 78.769 78.769s78.769-35.266 78.769-78.769zM275.692 960c-58.912 0-103.664 0.156-140.694-4s-69.557-13.202-93.617-37.231c-24.057-24.029-33.127-56.564-37.308-93.617s-4.077-81.857-4.077-140.847v-472.615c0-58.912-0.156-103.664 4-140.694s13.202-69.557 37.231-93.617c24.029-24.060 56.564-33.127 93.617-37.307 37.050-4.181 81.857-4.077 140.847-4.077h472.615c58.912 0 103.664-0.158 140.694 4 37.029 4.156 69.557 13.202 93.617 37.231s33.127 56.564 37.307 93.617c4.181 37.050 4.077 81.857 4.077 140.847v472.615c0 58.912 0.156 103.664-4 140.694s-13.202 69.557-37.231 93.617c-24.029 24.057-56.564 33.127-93.617 37.308s-81.857 4.077-140.847 4.077h-472.615zM275.692 881.231h472.615c58.947 0 102.628-0.224 132.001-3.538 29.371-3.314 41.204-9.122 46.769-14.692 5.563-5.57 11.319-17.403 14.615-46.769s3.538-73.035 3.538-131.923v-472.615c0-58.947-0.225-102.628-3.538-132.001-3.314-29.371-9.122-41.204-14.692-46.769-5.57-5.563-17.403-11.319-46.769-14.615s-73.035-3.538-131.923-3.538h-472.615c-58.947 0-102.628 0.225-132.001 3.538-29.371 3.314-41.204 9.122-46.769 14.692-5.563 5.57-11.319 17.403-14.615 46.769s-3.538 73.035-3.538 131.923v472.615c0 58.947 0.224 102.628 3.538 132.001 3.314 29.371 9.122 41.204 14.692 46.769 5.57 5.563 17.403 11.319 46.769 14.615s73.035 3.538 131.923 3.538v0zM314.447 448c-10.231-0.163-19.997-4.301-27.231-11.539l-118.154-118.154c-10.266-9.883-14.393-24.541-10.792-38.329s14.369-24.556 28.157-28.157c13.788-3.601 28.446 0.526 38.329 10.792l90.309 90.309 169.078-169.078c9.883-10.266 24.541-14.393 38.329-10.792s24.556 14.369 28.157 28.157c3.601 13.788-0.526 28.446-10.792 38.329l-31.231 31.231 82.152 82.152 208.463-208.463c9.883-10.266 24.541-14.393 38.329-10.792s24.556 14.369 28.157 28.157c3.601 13.788-0.526 28.446-10.792 38.329l-236.308 236.308c-7.535 7.539-17.804 11.702-28.462 11.539-10.231-0.163-19.997-4.301-27.231-11.539l-110.001-110.001-110.001 110.001c-7.535 7.539-17.804 11.702-28.462 11.539l-0.004 0.001z" />
<glyph unicode="&#xe90d;" glyph-name="icono-form14" d="M85.092 134.688h581.056c47.408 0 85.092 39.233 85.092 88.591v53.155l151.95-102.513c10.94-7.594 24.312-11.39 37.684-11.39 10.94 0 23.096 2.531 32.821 8.859 23.096 12.656 36.468 37.968 36.468 64.545v427.77c0 26.577-14.587 51.889-36.468 64.545s-48.624 11.39-70.505-2.531l-151.95-102.513v53.155c0 49.358-37.684 88.591-85.092 88.591h-581.056c-47.408 0-85.092-39.233-85.092-88.591v-454.347c0-48.092 37.684-87.326 85.092-87.326zM936.011 657.377v-415.114l-185.987 124.028v167.058l185.987 124.028zM72.936 676.361c0 7.594 4.862 12.656 12.156 12.656h581.056c7.294 0 12.156-5.062 12.156-12.656v-454.347c0-7.594-4.862-12.656-12.156-12.656h-581.056c-7.294 0-12.156 5.062-12.156 12.656v454.347z" />
<glyph unicode="&#xe90e;" glyph-name="icono-form15" d="M992.619 890.632c-1.652 19.819-18.168 36.335-37.987 37.987l-391.432 26.426c-11.561 1.652-23.123-3.303-31.381-11.561l-515.303-515.303c-16.516-16.516-16.516-42.942 0-57.806l417.858-417.858c8.258-8.258 18.168-11.561 29.729-11.561s21.471 3.303 29.729 11.561l513.652 515.303c8.258 8.258 13.213 19.819 11.561 31.381l-26.426 391.432zM464.103 40.052l-360.052 360.052 472.361 472.361 336.929-21.471 21.471-336.929-470.71-474.013zM720.103 778.323c-33.032 0-62.761-13.213-85.884-34.684-23.123-23.123-34.684-52.852-34.684-85.884s13.213-62.761 34.684-85.884c23.123-23.123 52.852-34.684 85.884-34.684s62.761 13.213 85.884 34.684v0c23.123 23.123 34.684 52.852 34.684 85.884s-13.213 62.761-34.684 85.884c-23.123 21.471-52.852 34.684-85.884 34.684zM748.181 629.677v0c-14.865-14.865-39.639-14.865-54.503 0-6.606 6.606-11.561 16.516-11.561 26.426s3.303 19.819 11.561 26.426c6.606 6.606 16.516 11.561 26.426 11.561s19.819-3.303 26.426-11.561c6.606-6.606 11.561-16.516 11.561-26.426 1.652-9.91-3.303-19.819-9.91-26.426zM531.819 497.548l-57.806-56.155-57.806 56.155-57.806-57.806 57.806-57.806-57.806-57.806 57.806-57.806 57.806 57.806 57.806-57.806 57.806 57.806-57.806 57.806 57.806 57.806z" />
<glyph unicode="&#xe90f;" glyph-name="icono-form16" d="M635.851 933.168c-18.213 17.888-43.712 26.832-69.211 26.832h-273.202c-94.71 0-173.028-76.919-173.028-169.938v-661.863c0-93.019 78.318-169.938 173.028-169.938h437.123c94.71 0 173.028 76.919 173.028 169.938v515.18c0 26.832-10.928 53.665-30.963 71.553l-236.775 218.236zM807.058 700.621h-138.422c-25.499 0-45.534 19.677-45.534 44.72v125.217l183.956-169.938zM848.949 128.199c0-64.398-52.819-116.273-118.387-116.273h-437.123c-65.568 0-118.387 51.876-118.387 116.273v661.863c0 64.398 52.819 116.273 118.387 116.273h275.023v-160.994c0-53.665 45.534-98.385 100.174-98.385h180.313v-518.758zM309.831 335.702c-12.749 0-23.677-10.733-23.677-23.255s10.928-23.255 23.677-23.255c12.749 0 23.677 10.733 23.677 23.255 1.821 12.522-9.107 23.255-23.677 23.255zM435.504 416.199c-14.571 0-27.32-5.366-36.427-17.888v14.311h-40.070v-166.36h40.070v60.82c10.928-12.522 21.856-17.888 36.427-17.888 30.963 0 54.64 23.255 54.64 64.398-1.821 39.354-23.677 62.609-54.64 62.609zM422.754 323.18c-9.107 0-18.213 5.366-23.677 10.733v35.776c5.464 7.155 14.571 10.733 23.677 10.733 14.571 0 27.32-10.733 27.32-28.621-1.821-17.888-12.749-28.621-27.32-28.621zM592.139 398.311c-9.107 12.522-23.677 17.888-36.427 17.888-30.963 0-54.64-23.255-54.64-62.609 0-41.143 23.677-64.398 54.64-64.398 14.571 0 25.499 5.366 36.427 17.888v-14.311h38.248v166.36h-38.248v-60.82zM592.139 333.913c-5.464-7.155-14.571-10.733-23.677-10.733-16.392 0-27.32 10.733-27.32 30.41s10.928 28.621 27.32 28.621c9.107 0 18.213-3.578 23.677-10.733v-37.565zM668.636 416.199v-3.578h-20.035v-33.988h20.035v-87.652h40.070v87.652h25.499v33.988h-25.499v3.578c0 10.733 5.464 14.311 12.749 14.311 5.464 0 9.107-1.789 12.749-3.578l14.571 23.255c-7.285 7.155-21.856 10.733-34.606 10.733-27.32 0-45.534-16.099-45.534-44.72z" />
<glyph unicode="&#xe910;" glyph-name="icono-form17" d="M592.593 420.346v-161.185h-161.185v161.185h-120.889l201.481 201.481 201.481-201.481h-120.889zM808.178 540.026c-27.401 138.619-149.499 242.987-296.178 242.987-116.456 0-217.6-66.086-267.97-162.394-121.292-13.298-215.585-115.65-215.585-240.569 0-133.53 108.248-241.778 241.778-241.778h523.852c53.436 0 104.684 21.227 142.469 59.013s59.013 89.033 59.013 142.469c0 106.382-82.607 192.616-187.378 200.273z" />
<glyph unicode="&#xe911;" glyph-name="icono-form18" d="M411.982 910.648c0 27.257 22.096 49.352 49.352 49.352s49.352-22.096 49.352-49.352v-220.605l59.716-6.416 243.801-108.575c24.676-9.87 41.949-36.027 41.949-66.132v-215.176c0-39.482-36.027-74.029-74.029-74.029h-320.79c-19.247 0-36.521 7.896-49.352 21.222l-241.827 207.28 36.521 38.001c9.377 9.87 22.209 15.793 36.521 15.793l10.858-1.481 157.928-83.405v493.523zM856.153-27.047h-394.819v148.057h394.819v-148.057z" />
<glyph unicode="&#xe912;" glyph-name="icono-form19" d="M1008.64 353.28l-51.2-51.2-104.96 104.96 51.2 51.2c10.752 11.264 28.672 11.264 39.424 0l65.536-65.536c11.264-10.752 11.264-28.672 0-39.424v0zM512 67.072l310.784 310.272 104.96-104.96-310.272-310.784h-105.472v105.472zM102.4 934.4h716.8c56.554 0 102.4-45.846 102.4-102.4v-213.504l-196.096-196.096h-213.504v-213.504l-93.696-93.696h-315.904c-56.554 0-102.4 45.846-102.4 102.4v614.4c0 56.554 45.846 102.4 102.4 102.4v0zM102.4 729.6v-204.8h307.2v204.8h-307.2zM512 729.6v-204.8h307.2v204.8h-307.2zM102.4 422.4v-204.8h307.2v204.8h-307.2z" />
<glyph unicode="&#xe913;" glyph-name="icono-form20" d="M798.72 664.936l-53.855-53.476-241.209 241.209-241.209-241.209-53.855 53.476 295.064 295.064zM798.72 261.784l-53.855 53.476-241.209-241.209-241.209 241.209-53.855-53.476 295.064-295.064z" />
<glyph unicode="&#xe914;" glyph-name="icono-form21" d="M787.692 644.923c0-43.503-35.266-78.769-78.769-78.769s-78.769 35.266-78.769 78.769c0 43.503 35.266 78.769 78.769 78.769s78.769-35.266 78.769-78.769zM275.692 960c-58.912 0-103.664 0.156-140.694-4s-69.557-13.202-93.617-37.231c-24.057-24.029-33.127-56.564-37.308-93.617s-4.077-81.857-4.077-140.847v-472.615c0-58.912-0.156-103.664 4-140.694s13.202-69.557 37.231-93.617c24.029-24.060 56.564-33.127 93.617-37.307 37.050-4.181 81.857-4.077 140.847-4.077h472.615c58.912 0 103.664-0.158 140.694 4 37.029 4.156 69.557 13.202 93.617 37.231s33.127 56.564 37.307 93.617c4.181 37.050 4.077 81.857 4.077 140.847v472.615c0 58.912 0.156 103.664-4 140.694s-13.202 69.557-37.231 93.617c-24.029 24.057-56.564 33.127-93.617 37.308s-81.857 4.077-140.847 4.077h-472.615zM275.692 881.231h472.615c58.947 0 102.628-0.224 132.001-3.538 29.371-3.314 41.204-9.122 46.769-14.692 5.563-5.57 11.319-17.403 14.615-46.769s3.538-73.035 3.538-131.923v-472.615c0-58.947-0.225-102.628-3.538-132.001-3.314-29.371-9.122-41.204-14.692-46.769-5.57-5.563-17.403-11.319-46.769-14.615s-73.035-3.538-131.923-3.538h-472.615c-58.947 0-102.628 0.225-132.001 3.538-29.371 3.314-41.204 9.122-46.769 14.692-5.563 5.57-11.319 17.403-14.615 46.769s-3.538 73.035-3.538 131.923v472.615c0 58.947 0.224 102.628 3.538 132.001 3.314 29.371 9.122 41.204 14.692 46.769 5.57 5.563 17.403 11.319 46.769 14.615s73.035 3.538 131.923 3.538v0zM314.447 448c-10.231-0.163-19.997-4.301-27.231-11.539l-118.154-118.154c-10.266-9.883-14.393-24.541-10.792-38.329s14.369-24.556 28.157-28.157c13.788-3.601 28.446 0.526 38.329 10.792l90.309 90.309 169.078-169.078c9.883-10.266 24.541-14.393 38.329-10.792s24.556 14.369 28.157 28.157c3.601 13.788-0.526 28.446-10.792 38.329l-31.231 31.231 82.152 82.152 208.463-208.463c9.883-10.266 24.541-14.393 38.329-10.792s24.556 14.369 28.157 28.157c3.601 13.788-0.526 28.446-10.792 38.329l-236.308 236.308c-7.535 7.539-17.804 11.702-28.462 11.539-10.231-0.163-19.997-4.301-27.231-11.539l-110.001-110.001-110.001 110.001c-7.535 7.539-17.804 11.702-28.462 11.539l-0.004 0.001z" />
<glyph unicode="&#xe915;" glyph-name="icono-form22" d="M787.692 644.923c0-43.503-35.266-78.769-78.769-78.769s-78.769 35.266-78.769 78.769c0 43.503 35.266 78.769 78.769 78.769s78.769-35.266 78.769-78.769zM275.692 960c-58.912 0-103.664 0.156-140.694-4s-69.557-13.202-93.617-37.231c-24.057-24.029-33.127-56.564-37.308-93.617s-4.077-81.857-4.077-140.847v-472.615c0-58.912-0.156-103.664 4-140.694s13.202-69.557 37.231-93.617c24.029-24.060 56.564-33.127 93.617-37.307 37.050-4.181 81.857-4.077 140.847-4.077h472.615c58.912 0 103.664-0.158 140.694 4 37.029 4.156 69.557 13.202 93.617 37.231s33.127 56.564 37.307 93.617c4.181 37.050 4.077 81.857 4.077 140.847v472.615c0 58.912 0.156 103.664-4 140.694s-13.202 69.557-37.231 93.617c-24.029 24.057-56.564 33.127-93.617 37.308s-81.857 4.077-140.847 4.077h-472.615zM275.692 881.231h472.615c58.947 0 102.628-0.224 132.001-3.538 29.371-3.314 41.204-9.122 46.769-14.692 5.563-5.57 11.319-17.403 14.615-46.769s3.538-73.035 3.538-131.923v-472.615c0-58.947-0.225-102.628-3.538-132.001-3.314-29.371-9.122-41.204-14.692-46.769-5.57-5.563-17.403-11.319-46.769-14.615s-73.035-3.538-131.923-3.538h-472.615c-58.947 0-102.628 0.225-132.001 3.538-29.371 3.314-41.204 9.122-46.769 14.692-5.563 5.57-11.319 17.403-14.615 46.769s-3.538 73.035-3.538 131.923v472.615c0 58.947 0.224 102.628 3.538 132.001 3.314 29.371 9.122 41.204 14.692 46.769 5.57 5.563 17.403 11.319 46.769 14.615s73.035 3.538 131.923 3.538v0zM314.447 448c-10.231-0.163-19.997-4.301-27.231-11.539l-118.154-118.154c-10.266-9.883-14.393-24.541-10.792-38.329s14.369-24.556 28.157-28.157c13.788-3.601 28.446 0.526 38.329 10.792l90.309 90.309 169.078-169.078c9.883-10.266 24.541-14.393 38.329-10.792s24.556 14.369 28.157 28.157c3.601 13.788-0.526 28.446-10.792 38.329l-31.231 31.231 82.152 82.152 208.463-208.463c9.883-10.266 24.541-14.393 38.329-10.792s24.556 14.369 28.157 28.157c3.601 13.788-0.526 28.446-10.792 38.329l-236.308 236.308c-7.535 7.539-17.804 11.702-28.462 11.539-10.231-0.163-19.997-4.301-27.231-11.539l-110.001-110.001-110.001 110.001c-7.535 7.539-17.804 11.702-28.462 11.539l-0.004 0.001z" />
<glyph unicode="&#xe916;" glyph-name="icono-form23" d="M878.094 409.234h-31.628v269.014l-243.050 281.752h-422.557c-64.978 0-117.844-54.832-117.844-122.226v-779.548c0-67.405 52.866-122.226 117.844-122.226h547.774c64.988 0 117.844 54.821 117.844 122.226v17.025h31.628c45.695 0 82.879 38.567 82.879 85.961v162.061c-0.011 47.394-37.195 85.961-82.89 85.961zM612.224 900.209l182.662-211.758h-182.662v211.758zM814.594 58.226c0-49.179-38.555-89.168-85.971-89.168h-547.763c-47.405 0-85.971 39.989-85.971 89.168v779.548c0 49.168 38.566 89.168 85.971 89.168h399.492v-271.548h234.253v-246.16h-349.42c-45.705 0-82.89-38.567-82.89-85.961v-162.061c0-47.394 37.185-85.961 82.89-85.961h349.409v-17.025zM929.101 161.212c0-29.157-22.885-52.904-51.007-52.904h-412.91c-28.122 0-51.017 23.736-51.017 52.904v162.061c0 29.157 22.885 52.904 51.017 52.904h412.91c28.112 0 51.007-23.736 51.007-52.904v-162.061zM663.601 314.092h-49.201v-148.76h49.201c47.809 0 68.887 28.132 68.887 77.906 0 47.923-24.691 70.854-68.887 70.854zM665.216 182.004h-31.745v115.405h32.138c35.156 0 47.809-21.455 47.809-56.86 0-54.799-35.145-58.545-48.202-58.545zM771.938 165.332h19.070v68.132h65.881v16.661h-65.881v47.284h75.134v16.683h-94.205zM535.479 314.092h-62.863v-148.76h19.081v60.837h43.782c28.537-0.22 43.995 16.441 43.995 43.945s-15.458 43.978-43.995 43.978zM529.051 242.831h-37.355v54.579h37.355c21.493 0 31.331-9.576 31.331-27.295s-9.838-27.504-31.331-27.284z" />
<glyph unicode="&#xe917;" d="M0.002 447.998c0-282.169 228.693-512 512-512s512 228.693 512 512c0 283.307-229.831 512-512 512s-512-229.831-512-512z" />
<glyph unicode="&#xe918;" d="M764.769 353.443c-7.691-10.763-13.835-12.299-19.991-12.299-12.299 0-29.207 7.68-49.198 23.063 15.383 1.536 29.218 3.072 43.054 3.072 21.527 0 29.218-3.072 32.29-4.608-1.547-1.547-3.072-4.619-6.155-9.227zM457.262 341.143c24.599 56.889 46.126 121.469 63.044 179.883 26.135-47.65 58.425-95.323 90.704-132.221-49.198-12.299-104.55-27.682-153.748-47.662zM501.851 716.303c1.536 4.608 3.072 6.144 6.155 6.144h1.536c3.072-4.608 7.68-26.135 0-76.868-9.227 29.207-13.835 56.889-7.691 70.724zM312.741 176.621c-12.311 9.227-10.775 15.383-10.775 16.919 1.536 13.835 21.527 36.898 73.808 64.58-38.434-70.736-59.961-79.963-63.033-81.499zM809.358 379.577c-9.227 16.919-32.29 26.146-69.188 26.146-21.527 0-49.198-3.083-79.952-9.227-44.59 46.126-89.179 113.778-121.469 179.883 30.754 133.769 10.763 159.903 3.072 169.131-7.68 10.763-18.443 15.383-30.743 15.383-4.619 0-9.227-1.536-15.371-3.072-12.299-4.619-23.074-13.847-29.218-27.682-16.919-39.97 6.144-106.086 29.218-158.367-21.538-79.952-55.353-176.822-90.726-255.226-90.715-39.982-138.377-81.488-142.985-119.933-1.536-13.835 1.536-35.362 26.135-53.817 6.155-4.608 15.371-7.68 23.063-7.68 19.991 0 41.518 16.907 66.116 50.734 18.443 24.599 36.898 59.972 56.889 101.478 64.58 27.682 142.996 53.817 210.637 67.652 36.91-35.362 70.736-53.817 99.942-53.817 21.527 0 38.446 9.227 52.281 27.682 13.835 19.979 16.907 36.898 12.299 50.734z" />
<glyph unicode="&#xe919;" glyph-name="icono-form25" d="M1024 856.869l-103.131 103.131-408.869-408.869-408.869 408.869-103.131-103.131 408.869-408.869-408.869-408.869 103.131-103.131 408.869 408.869 408.869-408.869 103.131 103.131-408.869 408.869z" />
<glyph unicode="&#xe91a;" glyph-name="icono-project15" d="M785.067 823.467h143.36v133.12h-822.613v-133.12h129.707v-218.453l191.147-146.773-191.147-146.773v-249.173h-129.707v-133.12h822.613v133.12h-143.36v249.173l-191.147 146.773 191.147 146.773v218.453zM682.667 260.267v-201.387h-341.333v201.387l170.667 133.12 170.667-133.12zM508.587 523.093l-170.667 133.12v167.253h341.333v-167.253l-170.667-133.12z" />
<glyph unicode="&#xe91b;" glyph-name="icono-profile1" d="M512 486.234c-68.856 0-124.675 55.819-124.675 124.675 0 33.066 13.135 64.778 36.517 88.159s55.093 36.517 88.159 36.517c68.856 0 124.675-55.819 124.675-124.675 0-33.066-13.135-64.778-36.517-88.159s-55.093-36.517-88.159-36.517v0zM512 960c-192.798 0-349.091-156.293-349.091-349.091 0-261.818 349.091-648.312 349.091-648.312s349.091 386.494 349.091 648.312c0 192.798-156.293 349.091-349.091 349.091v0z" />
<glyph unicode="&#xe91c;" glyph-name="icono-profile2" d="M921.6 857.6h-819.2c-56.32 0-101.888-44.308-101.888-98.462l-0.512-590.769c0-54.154 46.080-98.462 102.4-98.462h819.2c56.32 0 102.4 44.308 102.4 98.462v590.769c0 54.154-46.080 98.462-102.4 98.462zM921.6 660.677l-409.6-246.154-409.6 246.154v98.462l409.6-246.154 409.6 246.154v-98.462z" />
<glyph unicode="&#xe91d;" glyph-name="icono-profile3" d="M363.55 466.581c100.431 0 181.775 87.49 181.775 195.509s-81.344 195.509-181.775 195.509c-100.431 0-181.775-87.49-181.775-195.509s81.344-195.509 181.775-195.509zM887.669 564.336v146.632h-90.888v-146.632h-136.331v-97.755h136.331v-146.632h90.888v146.632h136.331v97.755h-136.331zM363.55 368.827c-121.335 0-363.55-65.496-363.55-195.509v-97.755h727.101v97.755c0 130.014-242.215 195.509-363.55 195.509z" />
<glyph unicode="&#xe91e;" glyph-name="icono-profile4" d="M362.937 823.467c100.222 0 181.468-81.246 181.468-181.468s-81.246-181.468-181.468-181.468c-100.222 0-181.468 81.246-181.468 181.468s81.246 181.468 181.468 181.468v0zM362.937 369.796c200.652 0 362.937-81.402 362.937-181.468v-90.734h-725.873v90.734c0 100.067 162.285 181.468 362.937 181.468v0zM777.722 426.31l-142.582 155.544 60.144 60.144 82.438-82.438 186.135 186.135 60.144-73.106-246.278-246.278z" />
<glyph unicode="&#xe91f;" glyph-name="icono-profile5" d="M85.333 857.6h853.333c44.8 0 85.333-42.035 85.333-88.494v-619.457c0-46.459-40.533-88.494-85.333-88.494h-853.333c-44.8 0-85.333 42.035-85.333 88.494v619.457c0 46.459 40.533 88.494 85.333 88.494v0zM597.333 724.859v-44.247h341.333v44.247h-341.333zM597.333 636.365v-44.247h341.333v44.247h-341.333zM597.333 547.872v-44.247h298.667v44.247h-298.667zM341.333 374.866c-85.333 0-256-48.229-256-136.723v-44.247h512v44.247c0 88.494-170.667 136.723-256 136.723v0zM341.333 724.859c-70.692 0-128-59.43-128-132.741s57.308-132.741 128-132.741c70.692 0 128 59.43 128 132.741s-57.308 132.741-128 132.741z" />
<glyph unicode="&#xe920;" glyph-name="icono-profile6" d="M1024 374.857h-438.857v-438.857h-146.286v438.857h-438.857v146.286h438.857v438.857h146.286v-438.857h438.857z" />
<glyph unicode="&#xe921;" glyph-name="icono-profile7" d="M1010.824-26.412h-213.333v368.981c0 57.944-63.467 106.048-120 106.048s-93.333-48.104-93.333-106.048v-368.981h-213.333v655.967h213.333v-109.328c35.2 58.49 125.867 96.208 186.667 96.208 133.333 0 240-111.514 240-246.534v-396.313zM264.157-26.412h-213.333v655.967h213.333v-655.967zM157.49 957.538c58.91 0 106.667-48.948 106.667-109.328s-47.756-109.328-106.667-109.328c-58.91 0-106.667 48.948-106.667 109.328s47.756 109.328 106.667 109.328z" />
<glyph unicode="&#xe922;" glyph-name="icono-profile8" d="M982.588 449.465c0 68.876-52.8 122.994-120 122.994-28.8 0-57.6-9.84-76.8-29.519-72 44.278-158.4 73.796-259.2 78.716l52.8 196.79 163.2-49.198c0-54.342 42.981-98.395 96-98.395s96 44.053 96 98.395c0 54.342-42.981 98.395-96 98.395-33.6 0-67.2-19.679-81.6-49.198l-192 49.198c-14.4 4.92-24-4.92-28.8-19.679l-57.6-226.308c-96-4.92-187.2-34.438-259.2-78.716-19.2 19.679-48 29.519-76.8 29.519-67.2 0-120-54.117-120-122.994 0-44.278 19.2-78.716 52.8-103.315l-4.8-44.278c0-177.111 192-319.784 432-319.784s432 142.673 432 319.784l-4.8 44.278c33.6 24.599 52.8 59.037 52.8 103.315v0zM358.588 434.705c33.6 0 57.6-29.519 57.6-59.037s-24-59.037-57.6-59.037c-33.6 0-57.6 24.599-57.6 59.037s24 59.037 57.6 59.037v0zM684.988 169.039c-86.4-54.117-278.4-54.117-364.8 0-9.6 9.839-14.4 24.599-4.8 34.438s24 14.759 33.6 4.92c57.6-44.278 249.6-44.278 307.2 0 9.6 9.839 24 4.92 33.6-4.92s4.8-24.599-4.8-34.438v0zM646.588 316.631c-33.6 0-57.6 29.519-57.6 59.037 0 34.438 28.8 59.037 57.6 59.037 33.6 0 57.6-29.519 57.6-59.037 0-34.438-24-59.037-57.6-59.037z" />
<glyph unicode="&#xe923;" glyph-name="icono-profile9" d="M409.6 238.993v413.259l307.2-206.629-307.2-206.63zM921.6 794.597c-30.72 9.184-220.16 18.367-409.6 18.367s-378.88-8.724-409.6-17.449c-79.872-23.877-102.4-184.589-102.4-349.893 0-164.844 22.528-326.015 102.4-349.434 30.72-9.184 220.16-17.908 409.6-17.908s378.88 8.724 409.6 17.908c79.872 23.418 102.4 184.589 102.4 349.434 0 165.304-22.528 325.556-102.4 348.974z" />
<glyph unicode="&#xe924;" glyph-name="icono-profile10" d="M730.353 514.761h-144v-191.87c0-35.914 6.72-54.117 52.8-54.117h91.2v-147.593c0 0-49.44-4.92-100.8-4.92-127.2 0-187.2 78.716-187.2 167.272v231.228h-96v137.753c115.68 9.839 125.76 100.363 134.4 157.432h105.6v-147.593h144v-147.593zM922.353 957.538h-768c-53.28 0-96-43.786-96-98.395v-787.16c0-54.342 42.981-98.395 96-98.395h768c53.019 0 96 44.053 96 98.395v787.16c0 54.609-43.2 98.395-96 98.395z" />
<glyph unicode="&#xe925;" glyph-name="icono-profile11" d="M990.118 767.471c-35.335-16.462-73.423-27.28-112.887-32.453 40.382 24.928 71.587 64.436 86.271 111.941-38.088-23.517-80.306-39.979-124.818-49.386-36.252 40.449-87.189 63.966-145.010 63.966-107.839 0-195.946-90.305-195.946-201.776 0-15.991 1.836-31.513 5.048-46.093-163.365 8.466-308.834 88.894-405.66 210.712-16.979-29.631-26.616-64.436-26.616-101.123 0-70.081 34.417-132.165 87.648-167.441-32.581 0-62.868 9.407-89.484 23.517 0-99.242 67.916-181.081 157.858-199.424-16.52-4.703-33.958-7.055-51.855-7.055-12.39 0-24.78 1.411-36.711 3.763 24.78-79.487 96.826-138.75 183.556-140.161-66.998-54.559-151.893-86.542-244.589-86.542-15.602 0-31.205 0.941-46.807 2.822 87.189-57.381 190.899-90.776 301.95-90.776 361.606 0 560.306 307.602 560.306 574.284 0 8.936 0 17.403-0.459 26.339 38.547 28.22 71.587 63.966 98.203 104.886z" />
<glyph unicode="&#xe926;" glyph-name="icono-profile12" d="M738.886 904.862v-182.745h-89.148c-30.756 0-44.574-37.006-44.574-68.529v-114.215h133.722v-182.745h-133.722v-365.489h-178.296v365.489h-133.722v182.745h133.722v182.745c0 100.927 79.826 182.745 178.296 182.745h133.722z" />
<glyph unicode="&#xe927;" glyph-name="icono-profile13" d="M346.417 892.484h367.737c140.090 0 253.913-116.663 253.913-260.248v-376.911c0-143.731-113.681-260.248-253.913-260.248h-367.737c-140.090 0-253.913 116.663-253.913 260.248v376.911c0 143.731 113.681 260.248 253.913 260.248v0zM337.662 802.743c-87.041 0-157.601-72.321-157.601-161.533v-394.859c0-89.292 70.483-161.533 157.601-161.533h385.248c87.041 0 157.601 72.321 157.601 161.533v394.859c0 89.292-70.483 161.533-157.601 161.533h-385.248zM760.121 735.437c30.223 0 54.723-25.111 54.723-56.088s-24.5-56.088-54.723-56.088c-30.222 0-54.723 25.111-54.723 56.088s24.5 56.088 54.723 56.088v0zM530.286 668.132c120.89 0 218.891-100.446 218.891-224.352s-98.001-224.352-218.891-224.352c-120.89 0-218.891 100.446-218.891 224.352s98.001 224.352 218.891 224.352v0zM530.286 578.391c-72.534 0-131.334-60.267-131.334-134.611s58.8-134.611 131.334-134.611c72.534 0 131.334 60.267 131.334 134.611s-58.8 134.611-131.334 134.611z" />
<glyph unicode="&#xe928;" glyph-name="icono-profile14" d="M0.145 682.073h104.469v-406.24h-104.469v406.24zM469.147 682.073v-406.24h-91.12l-0.403 274.284-36.342-274.284h-65.195l-38.007 268.379-0.429-268.379h-91.095v406.24h135.158c3.579-24.673 7.701-53.532 12.516-86.556l14.858-103.149 24.038 189.704h136.021zM615.238 612.816v-267.726c14.884 0 24.064 3.052 27.483 9.198 3.387 6.125 5.141 22.744 5.141 49.863v158.149c0 18.443-0.59 30.249-1.753 35.418-1.158 5.226-3.744 9.031-7.835 11.451-4.055 2.451-11.729 3.648-23.035 3.648v0zM588.805 682.073c50.362 0 84.444-2.341 102.183-7.019 17.77-4.704 31.284-12.407 40.515-23.068 9.232-10.745 15.019-22.629 17.336-35.799 2.343-13.139 3.501-38.898 3.501-77.363v-142.293c0-36.479-1.722-60.827-5.084-73.124-3.393-12.292-9.288-21.913-17.744-28.885-8.425-6.93-18.815-11.78-31.196-14.576-12.386-2.744-31.035-4.113-55.989-4.113h-131.527v406.24h78.005zM919.526 513.885c0 17.163-1.102 28.341-3.284 33.62-2.182 5.252-6.408 7.891-12.79 7.891-6.216 0-10.256-2.315-12.086-6.857-1.857-4.594-2.772-16.159-2.772-34.655v-143.082c0-17.842 1.050-29.246 3.15-34.247 2.069-5.033 6.242-7.484 12.433-7.484 6.356 0 10.499 2.55 12.433 7.729 1.939 5.195 2.912 17.596 2.912 37.289v139.794h0.005zM888.594 682.073v-96.7c8.316 9.794 17.553 17.11 27.726 21.924 10.25 4.792 21.344 7.207 33.296 7.207 13.752 0 25.683-2.179 35.83-6.501 10.121-4.38 17.848-10.473 23.154-18.307 5.301-7.86 8.507-15.563 9.604-23.068 1.050-7.51 1.619-23.528 1.619-48.091v-149.855c0-24.406-1.619-42.572-4.898-54.519-3.201-11.963-10.85-22.331-22.797-31.090-11.978-8.759-26.169-13.139-42.61-13.139-11.817 0-22.828 2.613-33.063 7.839-10.25 5.247-19.621 13.086-28.046 23.497l-6.491-25.436h-93.593v406.24h100.269z" />
<glyph unicode="&#xe929;" glyph-name="icono-profile15" d="M512 956.448c-282.629 0-512-226.734-512-506.115s229.371-506.115 512-506.115c282.629 0 512 226.735 512 506.115s-229.371 506.115-512 506.115v0zM500.093 932.172v-222.897h-199.442c10.201 31.094 22.247 59.699 35.721 85.333 42.744 75.514 94.872 130.924 163.721 137.563zM523.907 932.172c63.168-5.605 120.557-55.443 163.721-137.563 13.474-25.634 25.52-54.239 35.721-85.333h-199.442v222.897zM411.535 922.609c-37.202-26.318-69.974-66.743-96.372-116.966-15.217-28.95-28.382-61.335-39.442-96.368h-175.628c69.44 107.744 180.674 186.371 311.442 213.333zM612.465 922.609c130.768-26.962 242.002-105.589 311.442-213.333h-175.628c-11.059 35.033-24.225 67.418-39.442 96.368-26.398 50.223-59.17 90.647-96.372 116.966zM85.581 685.735h183.070c-18.657-67.138-29.551-143.152-30.512-223.632h-213.953c1.954 81.082 23.823 157.22 61.395 223.632zM293.581 685.735h206.512v-223.632h-238.14c1.009 81.066 12.479 157.246 31.628 223.632zM523.907 685.735h206.512c19.149-66.386 30.619-142.566 31.628-223.632h-238.14v223.632zM755.349 685.735h183.070c37.572-66.412 59.442-142.55 61.395-223.632h-213.953c-0.961 80.48-11.855 156.495-30.512 223.632zM24.186 438.562h213.953c0.963-80.641 12.153-156.491 30.884-223.632h-183.442c-37.572 66.412-59.442 142.55-61.395 223.632v0zM261.953 438.562h238.14v-223.632h-206.512c-19.157 66.294-30.618 142.56-31.628 223.632zM523.907 438.562h238.14c-1.010-81.073-12.471-157.338-31.628-223.632h-206.512v223.632zM785.86 438.562h213.953c-1.954-81.082-23.823-157.22-61.395-223.632h-183.442c18.731 67.141 29.921 142.992 30.884 223.632zM100.093 191.39h175.628c11.038-34.854 24.274-67.143 39.442-95.999 26.546-50.503 59.655-90.928 97.116-117.334-131.079 26.822-242.619 105.392-312.186 213.333zM301.023 191.39h199.070v-222.897c-63.168 5.644-120.557 55.812-163.721 137.932-13.409 25.511-25.18 54.088-35.349 84.965zM523.907 191.39h199.070c-10.169-30.877-21.94-59.454-35.349-84.965-43.164-82.12-100.553-132.288-163.721-137.932v222.897zM748.279 191.39h175.628c-69.567-107.941-181.107-186.512-312.186-213.333 37.461 26.406 70.571 66.831 97.116 117.334 15.168 28.857 28.404 61.146 39.442 95.999z" />
<glyph unicode="&#xe92a;" glyph-name="icono-profile16" d="M509.696 369.715c-8.806-3.482-13.107-13.466-9.626-22.272 22.784-57.549 9.421-122.88-34.15-166.451l-115.917-115.917c-29.030-29.030-67.789-45.005-109.158-45.005s-80.128 15.974-109.21 45.005l-2.458 2.509c-60.211 60.211-60.211 158.157 0 218.368l115.917 115.917c42.701 42.701 107.059 56.474 163.891 35.123 8.858-3.277 18.739 1.178 22.118 10.035 3.328 8.858-1.178 18.79-10.035 22.067-69.427 26.061-148.019 9.216-200.243-43.008l-115.917-115.917c-73.574-73.574-73.574-193.331 0-266.906l2.509-2.509c35.533-35.533 82.893-55.091 133.427-55.091s97.946 19.558 133.427 55.091l115.917 115.917c53.197 53.197 69.581 133.018 41.779 203.315-3.482 8.909-13.466 13.21-22.272 9.728zM919.091 852.582l-2.458 2.458c-73.574 73.574-193.331 73.574-266.906 0l-115.917-115.917c-51.558-51.558-68.71-129.382-43.725-198.246 3.226-8.909 13.107-13.517 21.965-10.291 8.909 3.226 13.517 13.056 10.291 21.965-20.48 56.422-6.451 120.115 35.738 162.304l115.917 115.917c60.211 60.211 158.157 60.211 218.368 0l2.458-2.458c60.211-60.211 60.211-158.157 0-218.368l-115.917-115.917c-44.186-44.237-112.691-57.242-170.394-32.461-8.704 3.738-18.79-0.307-22.528-9.011s0.307-18.79 9.011-22.528c23.808-10.189 49.050-15.155 74.189-15.155 49.357 0 98.202 19.098 133.99 54.886l115.917 115.917c73.574 73.574 73.574 193.331 0 266.906zM331.366 274.688c3.328-3.328 7.731-5.018 12.134-5.018s8.755 1.69 12.134 5.018l343.142 343.142c6.707 6.707 6.707 17.562 0 24.269s-17.562 6.707-24.269 0l-343.142-343.142c-6.707-6.707-6.707-17.613 0-24.269z" />
<glyph unicode="&#xe92b;" glyph-name="icono-profile17" d="M120.32 789.333l391.68-391.68 391.68 391.68 120.32-121.173-512-512-512 512z" />
<glyph unicode="&#xe92c;" glyph-name="icono-profile18" d="M786.286 960h-548.571c-60.594 0-109.714-49.121-109.714-109.714v-877.714l384 164.571 384-164.571v877.714c0 60.891-49.371 109.714-109.714 109.714z" />
<glyph unicode="&#xe92d;" glyph-name="icono-profile20" d="M796.444 106.667l-284.444 124.018-284.444-124.018v739.556h568.889v-739.556zM796.444 960h-568.889c-62.838 0-113.778-50.94-113.778-113.778v-910.222l398.222 170.667 398.222-170.667v910.222c0 63.147-51.2 113.778-113.778 113.778z" />
<glyph unicode="&#xe92e;" glyph-name="icono-profile21" d="M837.818 925.867l-232.727-209.455v-512l232.727 209.455v512zM256 786.23c-90.764 0-188.509-18.618-256-69.818v-682.356c0-11.636 11.636-23.273 23.273-23.273 4.655 0 6.982 3.258 11.636 3.258 62.836 30.255 153.6 50.735 221.091 50.735 90.764 0 188.509-18.618 256-69.818 62.836 39.564 176.873 69.818 256 69.818 76.8 0 155.927-14.429 221.091-49.338 4.655-2.327 6.982-1.396 11.636-1.396 11.636 0 23.273 11.636 23.273 23.273v679.098c-27.927 20.945-58.182 34.909-93.091 46.545v-628.364c-51.2 16.291-107.055 23.273-162.909 23.273-79.127 0-193.164-30.255-256-69.818v628.364c-67.491 51.2-165.236 69.818-256 69.818v0z" />
<glyph unicode="&#xe92f;" glyph-name="icono-profile22" d="M819.2 857.6l102.4-204.8h-153.6l-102.4 204.8h-102.4l102.4-204.8h-153.6l-102.4 204.8h-102.4l102.4-204.8h-153.6l-102.4 204.8h-51.2c-56.554 0-102.4-45.846-102.4-102.4v-614.4c0-56.554 45.846-102.4 102.4-102.4h819.2c56.554 0 102.4 45.846 102.4 102.4v716.8h-204.8z" />
<glyph unicode="&#xe930;" glyph-name="icono-profile23" d="M911.044 522.338l-86.713 122.26v148.199c0.2 1.463 0.34 2.948 0.34 4.466v129.984c0 18.087-14.664 32.751-32.751 32.751-18.091 0-32.753-14.664-32.753-32.751v-11.86h-0.202v-21.127h-494.522v21.129h-0.062v11.86c0 18.087-14.664 32.751-32.751 32.751-18.091 0-32.753-14.664-32.753-32.751v-129.984c0-0.432 0.048-0.85 0.064-1.279v-151.583l-86.575-122.066c-2.91-4.102-4.472-9.007-4.472-14.037v-174.297c0-13.399 10.862-24.263 24.261-24.263h58.228c1.115-0.784 2.267-1.531 3.5-2.187l246.468-132.037-246.468-132.037c-16.405-8.787-22.58-29.211-13.793-45.61 6.075-11.342 17.709-17.791 29.731-17.791 5.371 0 10.818 1.287 15.882 3.994l286.001 153.216 286.005-153.212c5.065-2.711 10.509-3.998 15.882-3.998 12.024 0 23.654 6.453 29.729 17.791 8.791 16.403 2.617 36.827-13.791 45.614l-246.468 132.037 246.468 132.033c1.231 0.66 2.381 1.403 3.498 2.189h58.228c13.399 0 24.261 10.866 24.261 24.263v174.297c0 5.029-1.563 9.933-4.472 14.035zM198.939 508.263l-40.529-149.996h-1.997v142.306l42.526 59.959v-52.269zM511.704 213.743l-217.657 116.603h435.319l-217.661-116.603zM760.834 621.824h-498.26v98.345h498.26v-98.345zM866.995 358.267h-2.131l-40.529 149.996v52.463l42.66-60.153v-142.306z" />
<glyph unicode="&#xe931;" glyph-name="icono-profile24" d="M413.538 251.077v49.231h-344.123l-0.492-196.923c0-54.646 43.815-98.462 98.462-98.462h689.231c54.646 0 98.462 43.815 98.462 98.462v196.923h-344.615v-49.231h-196.923zM905.846 694.154h-197.415v98.462l-98.462 98.462h-196.923l-98.462-98.462v-98.462h-196.431c-54.154 0-98.462-44.308-98.462-98.462v-147.692c0-54.646 43.815-98.462 98.462-98.462h295.385v98.462h196.923v-98.462h295.385c54.154 0 98.462 44.308 98.462 98.462v147.692c0 54.154-44.308 98.462-98.462 98.462zM610.462 694.154h-196.923v98.462h196.923v-98.462z" />
<glyph unicode="&#xe932;" glyph-name="icono-profile25" d="M675.023 530.039l69.189-261.931-227.336 187.799-227.336-187.799 69.189 256.988-207.568 172.973 266.873 14.826 98.842 247.104 98.842-247.104 266.873-14.826-207.568-168.031zM615.718 114.903h-49.421v153.205l-49.421 49.421-49.421-49.421v-153.205h-49.421c-54.589 0-98.842-44.253-98.842-98.842v-49.421h395.367v49.421c0 54.589-44.253 98.842-98.842 98.842z" />
<glyph unicode="&#xe933;" glyph-name="icono-profile26" d="M128 952.832v-977.455l768 488.727z" />
<glyph unicode="&#xe934;" glyph-name="icono-profile27" d="M1024 732.444l-682.667-682.667-312.889 312.889 80.213 80.213 232.676-232.107 602.453 601.884z" />
<glyph unicode="&#xe935;" glyph-name="icono-profile28" d="M291.286 904.649l124.541-75.001c8.637-5.239 18.543-8.015 28.644-8.026h496.502c11.464 0 20.757-9.293 20.757-20.757v-733.405c0-11.464-9.293-20.757-20.757-20.757h-857.946c-11.464 0-20.757 9.293-20.757 20.757v816.432c0 11.464 9.293 20.757 20.757 20.757h208.259zM306.093 960h-223.066c-42.033 0-76.108-34.075-76.108-76.108v-816.432c0-42.033 34.075-76.108 76.108-76.108h857.946c42.033 0 76.108 34.075 76.108 76.108v733.405c0 42.033-34.075 76.108-76.108 76.108h-497.055l-137.271 83.027h-0.554zM7.472 683.243h1009.055v-55.351h-1009.055v55.351zM574.132 185.081c-10.674 0.203-20.28 6.528-24.684 16.253s-2.822 21.117 4.066 29.273l83.027 96.865c5.258 6.148 12.944 9.687 21.034 9.686v0c8.090 0.001 15.775-3.539 21.034-9.686l83.027-96.865c7.946-7.168 11.048-18.274 7.966-28.522s-11.797-17.8-22.379-19.395c-10.582-1.595-21.135 3.054-27.101 11.939l-61.717 72.234-63.377-72.095c-5.227-6.111-12.854-9.647-20.895-9.686v0zM284.644 185.081c-10.874-0.228-20.874 5.934-25.559 15.75s-3.185 21.466 3.833 29.776l145.021 169.652c5.258 6.148 12.944 9.687 21.034 9.686v0c8.090 0.001 15.775-3.539 21.034-9.686l145.021-169.652c7.946-7.168 11.048-18.274 7.966-28.522s-11.797-17.8-22.379-19.395c-10.582-1.595-21.135 3.054-27.101 11.939l-124.541 145.021-123.295-144.882c-5.258-6.148-12.944-9.687-21.034-9.686v0zM684.004 514.698c19.106 0 34.595-15.489 34.595-34.595s-15.489-34.595-34.595-34.595c-19.106 0-34.595 15.489-34.595 34.595s15.489 34.595 34.595 34.595v0zM684.004 570.050c-36.38 0-69.177-21.915-83.099-55.525s-6.227-72.298 19.498-98.022c25.724-25.724 64.412-33.42 98.022-19.498s55.525 46.719 55.525 83.099c-0.076 49.644-40.302 89.87-89.946 89.946v0z" />
<glyph unicode="&#xe936;" glyph-name="icono-profile29" d="M675.023 530.039l69.189-261.931-227.336 187.799-227.336-187.799 69.189 256.988-207.568 172.973 266.873 14.826 98.842 247.104 98.842-247.104 266.873-14.826-207.568-168.031zM615.718 114.903h-49.421v153.205l-49.421 49.421-49.421-49.421v-153.205h-49.421c-54.589 0-98.842-44.253-98.842-98.842v-49.421h395.367v49.421c0 54.589-44.253 98.842-98.842 98.842z" />
<glyph unicode="&#xe937;" glyph-name="icono-profile30" d="M102.4 823.467h153.6l102.4 102.4h307.2l102.4-102.4h153.6c56.554 0 102.4-45.846 102.4-102.4v-614.4c0-56.554-45.846-102.4-102.4-102.4h-819.2c-56.554 0-102.4 45.846-102.4 102.4v614.4c0 56.554 45.846 102.4 102.4 102.4v0zM512 669.867c-141.385 0-256-114.615-256-256s114.615-256 256-256c141.385 0 256 114.615 256 256s-114.615 256-256 256v0zM512 567.467c84.831 0 153.6-68.769 153.6-153.6s-68.769-153.6-153.6-153.6c-84.831 0-153.6 68.769-153.6 153.6s68.769 153.6 153.6 153.6z" />
<glyph unicode="&#xe938;" glyph-name="icono-profile31" d="M512-64c283.022 0 512 228.978 512 512s-228.978 512-512 512c-283.022 0-512-228.978-512-512s228.978-512 512-512zM512 903.111c250.311 0 455.111-204.8 455.111-455.111s-204.8-455.111-455.111-455.111c-250.311 0-455.111 204.8-455.111 455.111s204.8 455.111 455.111 455.111zM369.778 224.711c4.267-2.844 9.956-4.267 14.222-4.267s9.956 1.422 14.222 4.267l341.333 199.111c8.533 5.689 14.222 14.222 14.222 24.178s-5.689 19.911-14.222 24.178l-341.333 199.111c-8.533 5.689-19.911 5.689-28.444 0s-14.222-14.222-14.222-24.178v-398.222c0-9.956 5.689-19.911 14.222-24.178zM412.444 597.333l256-149.333-256-149.333v298.667z" />
<glyph unicode="&#xe939;" glyph-name="icono-profile32" d="M120.32 749.739l391.68-391.68 391.68 391.68 120.32-121.173-512-512-512 512z" />
<glyph unicode="&#xe93a;" glyph-name="icono-profile33" d="M496.909-5.724l-72.052 65.592c-255.908 232.057-424.858 385.602-424.858 572.937 0 153.545 120.252 273.3 273.3 273.3 86.462 0 169.446-40.25 223.609-103.357 54.163 63.108 137.147 103.357 223.609 103.357 153.048 0 273.3-119.755 273.3-273.3 0-187.335-168.949-340.88-424.858-572.937l-72.052-65.592z" />
<glyph unicode="&#xe93b;" glyph-name="icono-profile34" d="M512 601.6c-77.119 0-139.636-61.128-139.636-136.533s62.517-136.533 139.636-136.533c77.119 0 139.636 61.128 139.636 136.533s-62.517 136.533-139.636 136.533v0zM512 237.511c-128.532 0-232.727 101.88-232.727 227.556s104.196 227.556 232.727 227.556c128.532 0 232.727-101.88 232.727-227.556s-104.196-227.556-232.727-227.556v0zM512 806.4c-232.727 0-431.476-141.54-512-341.333 80.524-199.794 279.273-341.333 512-341.333s431.476 141.54 512 341.333c-80.524 199.794-279.273 341.333-512 341.333z" />
<glyph unicode="&#xe93c;" glyph-name="icono-profile35" d="M529.782 790.857c-220.742 0-409.256-142.171-485.633-342.857 76.377-200.686 264.891-342.857 485.633-342.857s409.256 142.171 485.633 342.857c-76.377 200.686-264.891 342.857-485.633 342.857zM529.782 219.429c-121.85 0-220.742 102.4-220.742 228.571s98.893 228.571 220.742 228.571c121.85 0 220.742-102.4 220.742-228.571s-98.893-228.571-220.742-228.571zM529.782 585.143c-73.286 0-132.445-61.257-132.445-137.143s59.159-137.143 132.445-137.143c73.286 0 132.445 61.257 132.445 137.143s-59.159 137.143-132.445 137.143z" />
<glyph unicode="&#xe93d;" glyph-name="icono-profile36" d="M389.054 486.727c118.944 0 214.279 134.881 214.279 254.978s-96.433 217.461-215.377 217.461c-118.944 0-215.377-97.364-215.377-217.461 0.014-120.097 97.531-254.978 216.474-254.978zM468.785 390.586h-160.171c-170.439 0-308.614-137.98-308.614-308.197l0.736-36.447c0-47.55 38.601-86.109 86.234-86.109h604.945c47.619 0 86.234 38.559 86.234 86.109l-0.736 36.447c-0.014 170.217-138.175 308.197-308.628 308.197zM895.425 464.911c-10.852 10.852-10.852 28.444 0 39.296l96.892 96.892c10.852 10.852 10.852 28.444 0 39.296l-19.648 19.662c-10.852 10.852-28.444 10.852-39.296 0l-155.849-155.836c-10.852-10.852-10.852-28.444 0-39.296l155.849-155.849c10.852-10.852 28.444-10.852 39.296 0l19.648 19.648c10.852 10.852 10.852 28.444 0 39.296l-96.892 96.892z" />
<glyph unicode="&#xe93e;" glyph-name="icono-profile37" d="M826.182 960h-628.364c-57.6 0-104.727-46.080-104.727-102.4v-819.2c0-56.32 47.127-102.4 104.727-102.4h628.364c57.6 0 104.727 46.080 104.727 102.4v819.2c0 56.32-47.127 102.4-104.727 102.4zM197.818 857.6h261.818v-409.6l-130.909 76.8-130.909-76.8v409.6z" />
<glyph unicode="&#xe93f;" glyph-name="icono-project1" d="M0 363.736l170.447 170.447 152.378 30.114c193.936 263.801 564.945 395.702 699.255 395.702 0-134.31-131.901-505.318-395.702-699.255l-30.114-152.378-170.447-170.447-42.762 212.607c-84.922 0-84.922 0-127.685 42.762s-42.762 42.762-42.762 127.685l-212.607 42.762zM170.447 193.289l84.922-84.922-160.208-160.81h-85.525v85.525l160.81 160.208zM84.922 278.212l74.684-10.239-148.162-147.56v85.525l73.479 72.274zM330.053 97.526l10.239-74.684-72.274-73.479h-85.525l147.56 148.162zM613.73 641.993c-49.895 0-90.343-40.448-90.343-90.343s40.448-90.343 90.343-90.343c49.895 0 90.343 40.448 90.343 90.343s-40.448 90.343-90.343 90.343z" />
<glyph unicode="&#xe940;" glyph-name="icono-project2" d="M742.4 903.111c-89.088 0-174.592-39.936-230.4-102.552-55.808 62.616-141.312 102.552-230.4 102.552-157.696 0-281.6-118.822-281.6-271.17 0-185.875 174.080-338.223 437.76-568.472l74.24-65.081 74.24 65.081c263.68 230.248 437.76 382.597 437.76 568.472 0 152.348-123.904 271.17-281.6 271.17z" />
<glyph unicode="&#xe941;" glyph-name="icono-project3" d="M517.12 125.914l-5.12-5.12-5.632 5.12c-243.2 220.672-403.968 366.592-403.968 514.56 0 102.4 76.8 179.2 179.2 179.2 78.848 0 155.648-51.2 182.784-120.832h95.232c27.136 69.632 103.936 120.832 182.784 120.832 102.4 0 179.2-76.8 179.2-179.2 0-147.968-160.768-293.888-404.48-514.56v0zM742.4 922.074c-89.088 0-174.592-41.472-230.4-106.496-55.808 65.024-141.312 106.496-230.4 106.496-157.696 0-281.6-123.392-281.6-281.6 0-193.024 174.080-351.232 437.76-590.336l74.24-67.584 74.24 67.584c263.68 239.104 437.76 397.312 437.76 590.336 0 158.208-123.904 281.6-281.6 281.6z" />
<glyph unicode="&#xe942;" glyph-name="icono-project4" d="M786.286 137.143l-274.286 119.589-274.286-119.589v713.143h548.571v-713.143zM786.286 960h-548.571c-60.594 0-109.714-49.121-109.714-109.714v-877.714l384 164.571 384-164.571v877.714c0 60.891-49.371 109.714-109.714 109.714z" />
<glyph unicode="&#xe943;" glyph-name="icono-project5" d="M786.286 960h-548.571c-60.594 0-109.714-49.121-109.714-109.714v-877.714l384 164.571 384-164.571v877.714c0 60.891-49.371 109.714-109.714 109.714z" />
<glyph unicode="&#xe944;" glyph-name="icono-project6" d="M512-64c283.022 0 512 228.978 512 512s-228.978 512-512 512c-283.022 0-512-228.978-512-512s228.978-512 512-512zM512 903.111c250.311 0 455.111-204.8 455.111-455.111s-204.8-455.111-455.111-455.111c-250.311 0-455.111 204.8-455.111 455.111s204.8 455.111 455.111 455.111zM369.778 224.711c4.267-2.844 9.956-4.267 14.222-4.267s9.956 1.422 14.222 4.267l341.333 199.111c8.533 5.689 14.222 14.222 14.222 24.178s-5.689 19.911-14.222 24.178l-341.333 199.111c-8.533 5.689-19.911 5.689-28.444 0s-14.222-14.222-14.222-24.178v-398.222c0-9.956 5.689-19.911 14.222-24.178zM412.444 597.333l256-149.333-256-149.333v298.667z" />
<glyph unicode="&#xe945;" glyph-name="icono-project7" d="M512-64c283.022 0 512 228.978 512 512s-228.978 512-512 512c-283.022 0-512-228.978-512-512s228.978-512 512-512zM512 903.111c250.311 0 455.111-204.8 455.111-455.111s-204.8-455.111-455.111-455.111c-250.311 0-455.111 204.8-455.111 455.111s204.8 455.111 455.111 455.111zM369.778 224.711c4.267-2.844 9.956-4.267 14.222-4.267s9.956 1.422 14.222 4.267l341.333 199.111c8.533 5.689 14.222 14.222 14.222 24.178s-5.689 19.911-14.222 24.178l-341.333 199.111c-8.533 5.689-19.911 5.689-28.444 0s-14.222-14.222-14.222-24.178v-398.222c0-9.956 5.689-19.911 14.222-24.178zM412.444 597.333l256-149.333-256-149.333v298.667z" />
<glyph unicode="&#xe946;" glyph-name="icono-project8" d="M508.711 355.715c-16.89-0.483-29.919-14.477-29.436-30.884 0 0 1.448-71.419 40.535-140.425 40.535-69.006 126.431-134.635 276.025-120.64 16.407 0.965 29.436 14.477 28.471 31.849-0.965 16.89-15.442 29.436-34.262 27.989-131.257-12.064-186.751 37.64-218.118 91.204-31.366 53.082-32.332 110.506-32.332 110.506 0 16.89-13.512 30.401-30.884 30.401zM498.095 596.996v-0.483c-85.896-2.895-171.792-47.291-221.013-140.908-63.698-120.158-34.744-242.728 7.721-331.037 42.948-88.791 101.338-147.664 101.338-147.664 11.581-12.064 30.401-12.064 42.465-0.483s12.064 29.436 0.483 42.465c0 0-51.634 53.082-89.756 131.739s-61.285 178.065-9.169 276.507c54.047 101.338 150.559 125.948 235.49 101.338 85.896-25.093 157.797-99.89 156.35-210.397-1.93-16.89 10.134-31.366 27.023-32.332 16.407-1.448 30.884 11.099 32.332 30.884 2.895 138.012-89.756 237.903-198.815 269.752-27.506 7.721-55.977 11.581-84.448 10.616zM480.722 714.258c-81.070-5.791-158.763-35.227-217.152-83.966-114.85-95.065-188.199-269.269-107.611-503.794 5.308-15.925 22.68-24.128 38.605-18.82 15.442 5.308 24.128 22.68 18.337 38.122-74.314 215.705-8.204 357.095 89.274 439.13 95.065 77.692 262.996 96.512 387.979 19.302 61.285-38.605 109.059-105.198 133.187-170.827 24.611-65.628 23.163-129.326 3.378-159.245-20.268-31.366-61.285-42.948-97.477-33.779s-65.628 35.227-67.076 90.239c-1.448 82.518-66.111 133.669-133.187 141.39-64.663 7.721-139.46-27.023-158.763-104.233-36.675-140.908 55.495-341.171 268.786-407.764 15.925-4.826 32.814 3.86 38.122 19.785 4.826 15.925-3.378 33.297-20.268 38.122-184.821 57.425-254.792 232.594-228.251 335.862 11.581 46.326 52.117 62.25 94.582 58.39 41.983-4.826 78.175-29.919 78.175-82.518 2.413-79.14 54.047-132.704 112.919-147.664s126.914 3.86 163.106 59.355c37.64 56.46 31.366 136.082 2.895 212.809-28.954 77.21-82.518 153.454-158.28 201.228-74.314 46.326-159.728 64.663-241.28 58.872zM515.467 833.933c-287.606 3.86-425.136-227.286-425.136-227.286-9.169-13.994-5.308-32.332 8.204-41.5 13.994-9.169 32.814-4.343 44.396 11.099 0 0 116.78 201.71 371.572 197.367 255.757-3.378 367.711-195.92 367.711-195.92 8.686-13.994 27.023-18.82 41.5-10.616 15.442 8.686 18.82 27.023 10.616 41.983 0 0-132.704 221.013-418.863 224.873zM496.647 959.882c-164.071-2.895-270.234-76.727-270.234-76.727-13.512-8.686-16.89-28.471-7.721-41.983 9.651-14.959 28.471-17.372 42.948-7.238 0 0 207.984 153.937 506.689-1.93 13.994-8.204 32.814-3.378 41.018 11.099 9.169 14.477 2.895 32.814-13.512 41.983-80.588 42.465-156.832 63.698-225.356 71.419-25.576 2.895-50.186 3.86-73.832 3.378z" />
<glyph unicode="&#xe947;" glyph-name="icono-project9" d="M538.527 513.904c-18.186 18.543-42.281 28.7-68.112 28.7-25.716 0-49.926-10.157-68.112-28.7-37.531-38.267-37.531-100.628 0-138.896 18.186-18.543 42.396-28.818 68.112-28.818 25.832 0 49.926 10.275 68.112 28.818 37.647 38.267 37.647 100.628 0 138.896zM513.969 400.048c-11.584-11.811-27.106-18.425-43.555-18.425s-31.855 6.614-43.439 18.425c-24.094 24.448-24.094 64.369 0 88.818 11.584 11.811 26.99 18.307 43.439 18.307s31.971-6.496 43.555-18.307c12.047-12.283 18.071-28.346 18.071-44.409s-6.024-32.125-18.071-44.409zM645.56 449.063c-1.043 44.291-18.186 88.109-51.2 121.77-68.344 69.684-179.548 69.684-247.891 0-33.014-33.779-51.316-78.66-51.316-126.376s18.302-92.597 51.316-126.376c34.172-34.842 79.117-52.204 123.946-52.204 17.26 0 34.519 2.598 51.084 7.677 2.433 14.645 6.139 28.937 11.12 42.519-52.474-26.456-117.806-17.48-161.477 27.047-26.643 27.047-41.238 63.070-41.238 101.337s14.595 74.29 41.238 101.337c27.338 27.874 63.363 41.81 99.272 41.81 36.025 0 72.051-13.937 99.388-41.81 32.319-32.952 45.524-78.070 39.848-120.943 11.236 9.094 23.167 17.244 35.91 24.212zM722.592 475.874c-11.584-1.89-22.936-4.606-33.94-8.149-5.213 50.314-27.106 98.266-63.015 134.998-41.47 42.283-96.492 65.55-155.222 65.55-58.614 0-113.636-23.267-155.106-65.55s-64.29-98.502-64.29-158.265c0-59.763 22.82-115.982 64.29-158.265s96.492-65.55 155.106-65.55c16.217 0 32.087 1.772 47.493 5.197 0.232-12.047 1.274-23.976 3.243-35.551-16.565-3.307-33.477-5.079-50.737-5.079-67.881 0-131.707 26.929-179.663 75.944-48.072 49.015-74.483 114.093-74.483 183.304s26.411 134.289 74.483 183.304c47.957 48.897 111.783 75.944 179.663 75.944 67.996 0 131.823-27.047 179.779-75.944 40.659-41.456 65.68-95.313 72.398-151.887zM532.271 146.942c3.938-11.457 8.804-22.441 14.364-32.952-25.137-6.024-50.852-9.094-76.684-9.094-47.841 0-95.913 10.394-140.858 31.889-8.804 4.134-12.51 14.645-8.456 23.504 4.17 8.858 14.48 12.638 23.167 8.504 60.004-28.582 126.262-35.314 188.467-21.85zM802.056 475.401c-11.468 2.008-23.167 3.189-35.214 3.425-7.182 66.141-35.678 130.274-85.372 180.824-116.416 118.581-305.694 118.581-421.995 0-6.834-6.968-17.839-6.968-24.557 0-6.834 6.85-6.834 18.071 0 25.039 129.853 132.4 341.256 132.4 471.109 0 57.224-58.346 89.31-132.99 96.029-209.288zM247.15 199.051c-4.448 0-8.896 1.724-12.29 5.185-109.709 111.86-128.822 289.673-45.431 422.816 5.166 8.256 15.916 10.665 23.99 5.398 8.085-5.268 10.46-16.216 5.294-24.46-74.68-119.242-57.548-278.511 40.717-378.703 6.788-6.921 6.788-18.13 0-25.051-3.382-3.461-7.831-5.185-12.279-5.185zM77.634 466.697c-0.579 0-1.158 0.024-1.738 0.083-9.557 0.968-16.518 9.638-15.58 19.382 9.36 96.211 51.513 186.918 118.71 255.421 102.956 104.963 248.795 146.443 390.163 110.904 9.313-2.339 15.001-11.941 12.707-21.437-2.282-9.508-11.676-15.307-21.024-12.968-129.378 32.527-262.997-5.433-357.265-101.55-61.533-62.739-100.13-145.793-108.702-233.866-0.892-9.142-8.445-15.968-17.271-15.968zM599.689 45.605c-41.933-14.055-85.604-21.141-129.274-21.141-105.528 0-211.055 40.866-291.33 122.833-66.259 67.558-107.033 153.305-117.922 247.91-1.158 9.803 5.676 18.543 15.175 19.724 9.614 1.063 18.186-5.787 19.345-15.59 9.962-86.573 47.262-165.116 107.96-227.004 99.736-101.691 241.868-134.407 368.941-98.148 8.34-10.275 17.376-19.842 27.106-28.582zM882.91 445.402c-11.236 6.732-23.052 12.519-35.33 17.244-1.158 24.567-4.633 49.369-10.541 73.936-2.317 9.449 3.359 19.015 12.742 21.378 9.267 2.362 18.65-3.425 20.967-12.992 7.993-33.188 12.047-66.495 12.163-99.565zM833.077 586.151c-6.73 0-13.136 4.004-15.974 10.712-18.893 44.692-45.732 84.955-79.8 119.667-34.473 35.149-74.46 62.739-118.872 82.026-8.827 3.827-12.939 14.244-9.174 23.244s13.9 13.205 22.797 9.354c48.513-21.071 92.195-51.2 129.819-89.562 37.184-37.889 66.502-81.873 87.144-130.699 3.788-8.988-0.266-19.405-9.082-23.279-2.236-0.992-4.564-1.465-6.858-1.465zM761.050 24.215c-111.771 0-202.715 92.727-202.715 206.69s90.944 206.69 202.715 206.69c111.771 0 202.715-92.727 202.715-206.69s-90.944-206.69-202.715-206.69zM761.050 402.162c-92.612 0-167.964-76.83-167.964-171.257s75.352-171.257 167.964-171.257c92.612 0 167.964 76.83 167.964 171.257s-75.352 171.257-167.964 171.257zM730.527 131.162v0c-4.599 0-9.024 1.866-12.29 5.185l-63.386 64.641c-6.788 6.921-6.788 18.13 0 25.051s17.781 6.921 24.569 0l51.096-52.109 120.575 122.939c6.788 6.921 17.781 6.921 24.569 0s6.788-18.13 0-25.051l-132.865-135.47c-3.232-3.319-7.657-5.185-12.267-5.185z" />
<glyph unicode="&#xe948;" glyph-name="icono-project10" d="M512-41.6c-268.8 0-486.4 220.8-486.4 489.6s217.6 486.4 486.4 486.4c268.8 0 489.6-217.6 489.6-489.6 0-265.6-220.8-486.4-489.6-486.4zM512 886.4c-243.2 0-438.4-195.2-438.4-438.4s198.4-441.6 441.6-441.6c243.2 0 441.6 198.4 441.6 441.6-3.2 243.2-201.6 438.4-444.8 438.4zM512 556.8c-73.6 0-131.2 57.6-131.2 131.2s57.6 131.2 131.2 131.2c73.6 0 131.2-57.6 131.2-131.2 0-70.4-57.6-131.2-131.2-131.2zM512 774.4c-44.8 0-83.2-38.4-83.2-83.2s38.4-83.2 83.2-83.2c44.8 0 83.2 38.4 83.2 83.2s-38.4 83.2-83.2 83.2zM512 73.6c-73.6 0-131.2 57.6-131.2 131.2s57.6 131.2 131.2 131.2c73.6 0 131.2-57.6 131.2-131.2 0-70.4-57.6-131.2-131.2-131.2zM512 291.2c-44.8 0-83.2-38.4-83.2-83.2s38.4-83.2 83.2-83.2c44.8 0 83.2 38.4 83.2 83.2s-38.4 83.2-83.2 83.2zM272 316.8c-73.6 0-131.2 57.6-131.2 131.2s57.6 131.2 131.2 131.2c73.6 0 131.2-57.6 131.2-131.2s-60.8-131.2-131.2-131.2zM272 531.2c-44.8 0-83.2-38.4-83.2-83.2s38.4-83.2 83.2-83.2c44.8 0 83.2 38.4 83.2 83.2s-38.4 83.2-83.2 83.2zM752 316.8c-73.6 0-131.2 57.6-131.2 131.2s57.6 131.2 131.2 131.2c73.6 0 131.2-57.6 131.2-131.2 3.2-73.6-57.6-131.2-131.2-131.2zM752 531.2c-44.8 0-83.2-38.4-83.2-83.2s38.4-83.2 83.2-83.2c44.8 0 83.2 38.4 83.2 83.2 3.2 44.8-35.2 83.2-83.2 83.2zM512 364.8c-44.8 0-83.2 35.2-83.2 83.2 0 44.8 35.2 83.2 83.2 83.2 44.8 0 83.2-35.2 83.2-83.2 0-44.8-38.4-83.2-83.2-83.2zM512 483.2c-19.2 0-35.2-16-35.2-35.2s16-35.2 35.2-35.2c19.2 0 35.2 16 35.2 35.2s-16 35.2-35.2 35.2z" />
<glyph unicode="&#xe949;" glyph-name="icono-project11" d="M985.712 642.009c-78.707 192.336-265.895 317.991-473.712 317.991s-395.005-125.655-473.712-317.991c-0.788-1.476-1.404-3.037-1.838-4.653-48.601-121.561-48.601-257.154 0-378.715 0.433-1.616 1.050-3.177 1.838-4.653 78.707-192.336 265.895-317.991 473.712-317.991s395.005 125.655 473.712 317.991c0.788 1.476 1.404 3.037 1.838 4.653 48.601 121.561 48.601 257.154 0 378.715-0.433 1.616-1.050 3.177-1.838 4.653v0zM512-19.478c-85.732 0-161.967 108.113-198.95 261.565h397.899c-36.982-153.452-113.217-261.565-198.95-261.565zM303.647 286.609c-19.008 106.755-19.008 216.028 0 322.783h416.705c9.555-53.264 14.326-107.277 14.256-161.391 0.070-54.115-4.701-108.127-14.256-161.391h-416.705zM44.522 448c-0.049 55.074 9.681 109.719 28.737 161.391h184.73c-17.493-106.883-17.493-215.899 0-322.783h-184.73c-19.056 51.672-28.786 106.317-28.737 161.391v0zM512 915.478c85.732 0 161.967-108.113 198.95-261.565h-397.899c36.982 153.452 113.217 261.565 198.95 261.565zM766.011 609.391h184.73c38.316-104.183 38.316-218.6 0-322.783h-184.73c8.83 53.342 13.218 107.324 13.12 161.391 0.099 54.067-4.29 108.050-13.12 161.391v0zM931.555 653.913h-174.213c-23.226 103.942-63.705 189.069-114.956 242.925 126.14-36.936 231.026-125.048 289.168-242.925zM381.613 896.838c-51.251-53.855-91.73-138.982-114.956-242.925h-174.213c58.143 117.877 163.028 205.989 289.168 242.925v0zM92.445 242.087h174.213c23.226-103.942 63.705-189.069 114.956-242.925-126.14 36.936-231.026 125.048-289.168 242.925v0zM642.387-0.838c51.251 53.855 91.73 138.982 114.956 242.925h174.213c-58.143-117.877-163.028-205.989-289.168-242.925v0z" />
<glyph unicode="&#xe94a;" glyph-name="icono-project12" d="M1014.13 80.347v735.306c0 40.713-33.311 74.024-74.024 74.024h-856.212c-40.713 0-74.024-33.311-74.024-74.024v-736.54c0-40.713 33.311-74.024 74.024-74.024h856.212c40.713 1.234 74.024 34.545 74.024 75.258zM940.106 55.672h-173.957v152.983h198.631v-128.308c0-13.571-11.104-24.675-24.675-24.675zM59.219 423.325h198.631v-165.32h-198.631v165.32zM766.149 423.325h198.631v-165.32h-198.631v165.32zM766.149 472.675v165.32h198.631v-165.32h-198.631zM716.8 472.675h-410.834v367.653h410.834v-367.653zM256.617 472.675h-197.398v165.32h198.631v-165.32h-1.234zM305.966 423.325h410.834v-367.653h-410.834v367.653zM964.781 815.653v-128.308h-198.631v152.983h173.957c13.571 0 24.675-11.104 24.675-24.675zM83.894 840.328h173.957v-152.983h-198.631v128.308c0 13.571 11.104 24.675 24.675 24.675zM59.219 80.347v128.308h198.631v-152.983h-173.957c-13.571 0-24.675 11.104-24.675 24.675z" />
<glyph unicode="&#xe94b;" glyph-name="icono-project13" d="M512 960c-282.319 0-512-229.68-512-512.001 0-282.319 229.681-512 512-512s512 229.681 512 512c0 282.321-229.681 512.001-512 512.001zM512 884.149c241.325 0 436.148-194.822 436.148-436.149 0-241.325-194.824-436.148-436.148-436.148s-436.148 194.824-436.148 436.148c0 241.326 194.824 436.149 436.148 436.149zM512 732.444c-20.945 0-37.926-16.979-37.926-37.926v-22.519c-25.003-4.866-47.891-14.799-66.962-30.221-28.378-22.953-46.816-59.314-46.816-98.964 0-43.175 25.57-77.564 53.927-94.815 20.169-12.271 40.319-19.788 59.851-26.666v-116.742c-20.178 8.924-35.353 23.565-43.258 36.741-10.801 17.998-34.147 23.834-52.147 13.035s-23.838-34.145-13.040-52.146c20.609-34.346 58.749-65.824 108.445-77.037v-23.704c0-20.946 16.981-37.926 37.926-37.926s37.926 16.979 37.926 37.926v22.519c25.014 5.040 47.885 15.385 66.962 30.815 28.378 22.953 46.816 58.721 46.816 98.37 0 43.175-25.568 78.16-53.927 95.408-20.169 12.269-40.321 19.788-59.851 26.666v116.148c20.177-8.75 35.356-22.972 43.258-36.147 6.986-11.646 19.654-18.68 33.233-18.453s26.004 7.683 32.596 19.557c6.591 11.874 6.347 26.362-0.642 38.007-20.609 34.342-58.751 65.381-108.445 76.443v23.704c0 20.946-16.979 37.926-37.926 37.926zM474.074 593.186v-90.074c-7.927 3.165-14.988 6.343-20.148 9.481-14.594 8.878-17.778 10.299-17.778 30.221 0 17.793 6.48 29.609 18.963 39.705 5.12 4.14 11.564 7.818 18.963 10.667zM549.926 393.481c7.925-3.165 14.988-6.343 20.148-9.481 14.594-8.878 17.778-10.892 17.778-30.815 0-17.793-6.482-29.015-18.963-39.111-5.12-4.142-11.566-7.701-18.963-10.667v90.074z" />
<glyph unicode="&#xe94c;" glyph-name="icono-project14" d="M512 960c-188.184 0-341.333-153.281-341.333-341.778 0-108.357 57.987-202.238 124.889-291.111 43.538-57.835 91.219-114.113 132.444-170.667-35.451-5.654-66.988-14.61-92.889-27.111-17.492-8.444-32.652-18.263-44.444-31.111s-20.444-29.731-20.444-48.444c0-21.39 11.224-40.015 25.778-53.778s33.048-24.242 54.667-32.889c43.238-17.296 99.348-27.111 161.333-27.111s118.095 9.815 161.333 27.111c21.619 8.647 40.113 19.125 54.667 32.889s25.778 32.388 25.778 53.778c0 18.714-8.652 35.595-20.444 48.444s-26.953 22.667-44.444 31.111c-25.901 12.501-57.438 21.457-92.889 27.111 41.226 56.554 88.906 112.831 132.444 170.667 66.902 88.873 124.889 182.754 124.889 291.111 0 188.496-153.149 341.778-341.333 341.778zM512 903.111c157.418 0 284.444-127.076 284.444-284.889 0-87.726-48.68-171.005-113.333-256.889-55.449-73.658-120.469-148.564-171.111-229.333-50.642 80.769-115.663 155.675-171.111 229.333-64.653 85.884-113.333 169.163-113.333 256.889 0 157.813 127.026 284.889 284.444 284.889zM512 803.556c-101.774 0-184.889-83.115-184.889-184.889s83.114-184.889 184.889-184.889c101.774 0 184.889 83.114 184.889 184.889s-83.114 184.889-184.889 184.889zM512 746.667c71.029 0 128-56.971 128-128s-56.971-128-128-128c-71.029 0-128 56.971-128 128s56.971 128 128 128zM464 104c8.227-12.977 16.072-26.039 23.111-39.111 5.011-9.053 14.542-14.671 24.889-14.671s19.878 5.618 24.889 14.671c7.039 13.072 14.884 26.134 23.111 39.111 42.782-4.217 79.964-13.962 104.444-25.778 12.93-6.241 22.159-12.828 27.111-18.222 4.952-5.396 5.333-8.325 5.333-10.222 0-2.175-0.963-5.79-8-12.444s-19.458-14.538-36.444-21.333c-33.974-13.589-84.609-23.111-140.444-23.111s-106.471 9.522-140.444 23.111c-16.987 6.795-29.408 14.679-36.444 21.333s-8 10.27-8 12.444c0 1.897 0.381 4.826 5.333 10.222 4.952 5.394 14.181 11.982 27.111 18.222 24.48 11.815 61.663 21.56 104.444 25.778z" />
<glyph unicode="&#xe94d;" glyph-name="icono-project16" d="M120.32 749.739l391.68-391.68 391.68 391.68 120.32-121.173-512-512-512 512z" />
<glyph unicode="&#xe94e;" glyph-name="icono-project17" d="M472.319 643.827l2.814 2.26c3.966 18.122 5.671 33.941 9.082 46.392l1.663 9.040c5.671 32.236 4.52 48.652-5.074 62.211l-8.485 2.857c-1.151-1.706-2.814-4.562-3.965-6.822-9.594-23.75-9.040-65.025 3.965-115.937zM301.505 252.993c-11.896-6.822-21.49-13.005-27.161-17.568-40.167-36.755-65.622-74.065-68.437-95.555 25.456 8.485 58.843 45.795 95.598 113.123zM820.173 335.543c-5.628 5.671-28.27 19.827-107.452 19.827-3.965 0-7.931 0-13.005-5.671 41.275-18.079 81.442-28.867 107.452-28.867 3.965 0 7.377 0.597 10.745 1.151h2.26c2.857 1.151 4.52 1.706 5.117 7.334-1.151 1.706-2.26 3.965-5.117 6.225zM905.026 960h-791.903c-62.765 0-113.123-50.315-113.123-113.123v-791.86c0-62.51 50.656-113.123 113.123-113.123h791.903c62.467 0 113.123 50.613 113.123 113.123v791.86c0 62.808-50.912 113.123-113.123 113.123zM843.369 295.419c-9.594-10.788-26.564-16.971-51.466-16.971-42.981 0-113.123 13.005-169.706 41.829-97.261-10.745-169.663-23.75-227.951-42.426-2.814-1.109-6.225-2.26-10.148-3.965-70.142-119.903-122.205-173.629-168-173.629-9.040 0-18.122 2.26-24.902 6.225l-27.161 17.525-1.663 2.814c-3.966 10.191-5.117 19.827-2.857 30.573 6.225 29.976 38.461 77.476 106.343 119.903 10.745 7.931 27.716 16.971 50.357 27.716 16.971 29.421 35.050 63.917 54.28 101.823 28.867 58.246 46.946 115.937 61.103 165.74v0.554c-20.936 68.437-33.387 109.712-12.451 184.971 5.074 21.49 23.75 43.535 44.686 43.535h13.559c13.005 0 25.456-4.52 34.538-13.559 37.31-37.352 19.785-128.431 1.109-203.647-1.109-3.369-1.706-6.225-2.26-7.931 22.642-63.917 54.877-115.383 90.524-144.804 14.668-11.299 31.084-22.599 49.206-32.79 25.456 2.814 49.76 3.966 72.956 3.966 70.142 0 112.569-12.451 128.942-39.015 5.671-9.082 8.485-19.827 6.822-31.127-0.597-14.156-5.671-27.161-15.862-37.31zM476.839 510.92c-13.005-41.872-31.681-86.558-57.137-135.765-11.299-21.49-23.75-41.872-28.27-58.843l6.225 2.26c71.848 27.716 139.73 43.578 188.936 52.617-8.485 5.671-16.416 11.896-23.196 18.122-33.941 28.824-63.362 70.696-86.558 121.608z" />
<glyph unicode="&#xe94f;" glyph-name="icono-project18" d="M842.615 827.26h-135.461c-104.741 0-189.635-84.894-189.635-189.635v-135.461h-108.349v-162.523h108.349v-379.27h162.572v379.27h162.523v162.523h-162.523v108.398c0 29.891 24.235 54.174 54.174 54.174h108.349v162.523zM138.299 935.609h758.491c59.831 0 108.349-48.518 108.349-108.349v-758.54c0-59.831-48.518-108.349-108.349-108.349h-758.491c-59.88 0-108.398 48.518-108.398 108.349v758.54c0 59.831 48.518 108.349 108.398 108.349v0z" />
<glyph unicode="&#xe950;" glyph-name="icono-project19" d="M826.904 592.662c25.99 21.65 56.369 47.689 69.876 76.41-22.187-11.41-48.762-18.432-78.019-22.235 27.112 19.505 49.298 44.958 60.709 79.628-28.184-15.165-56.905-28.136-92.648-34.67-83.968 101.327-285.013 18.968-249.222-132.73-141.41 8.68-227.572 72.606-299.106 151.162-40.619-66.072-5.413-166.327 42.813-193.975-24.917 1.658-43.886 9.216-61.781 17.896 2.194-83.432 48.226-123.514 112.738-145.213-19.505-3.803-41.204-4.876-61.781-1.609 20.041-57.978 61.781-94.257 133.266-101.864-48.762-41.155-138.679-69.876-211.285-58.514 62.318-39.546 133.266-70.997 231.863-66.658 238.933 10.874 398.775 182.077 402.578 432.372zM138.289 935.604h758.491c59.88 0 108.398-48.518 108.398-108.349v-758.491c0-59.88-48.518-108.398-108.398-108.398h-758.491c-59.88 0-108.349 48.518-108.349 108.398v758.491c0 59.831 48.469 108.349 108.349 108.349z" />
<glyph unicode="&#xe951;" glyph-name="icono-project20" d="M371.249 482.621v-83.383h139.459c-7.314-34.621-41.935-104.35-139.459-104.35-83.383 0-149.699 69.73-149.699 153.112s66.316 153.112 149.699 153.112c48.762 0 79.97-20.968 97.524-38.034l66.316 62.415c-41.935 41.935-97.524 66.316-163.84 66.316-136.046 0-243.81-107.764-243.81-243.81s107.764-243.81 243.81-243.81c139.459 0 233.57 97.524 233.57 236.983 0 17.067 0 27.794-3.901 41.448h-229.669zM907.63 448h-97.524v97.524h-48.762v-97.524h-97.524v-48.762h97.524v-97.524h48.762v97.524h97.524v48.762zM907.63 935.619c53.882 0 97.524-43.642 97.524-97.524v-780.19c0-53.882-43.642-97.524-97.524-97.524h-780.19c-53.882 0-97.524 43.642-97.524 97.524v780.19c0 54.126 43.886 97.524 97.524 97.524h780.19z" />
<glyph unicode="&#xe952;" glyph-name="icono-project21" d="M907.63 935.619h-780.19c-54.126 0-97.524-43.398-97.524-97.524v-780.19c0-53.882 43.642-97.524 97.524-97.524h780.19c53.882 0 97.524 43.642 97.524 97.524v780.19c0 54.126-43.886 97.524-97.524 97.524zM712.582 496.762h-146.286v-190.171c0-35.596 6.827-53.638 53.638-53.638h92.648v-146.286c0 0-50.225-4.876-102.4-4.876-129.219 0-190.171 78.019-190.171 165.79v229.181h-97.524v136.533c117.516 9.752 127.756 99.474 136.533 156.038h107.276v-146.286h146.286z" />
<glyph unicode="&#xe953;" glyph-name="icono-project22" d="M663.82 363.837c-34.133 0-58.514 29.257-58.514 58.514 0 34.133 29.257 58.514 58.514 58.514 34.133 0 58.514-29.257 58.514-58.514 0-34.133-24.381-58.514-58.514-58.514zM702.83 217.551c-87.771-53.638-282.819-53.638-370.59 0-9.752 9.752-14.629 24.381-4.876 34.133s24.381 14.629 34.133 4.876c58.514-43.886 253.562-43.886 312.076 0 9.752 9.752 24.381 4.876 34.133-4.876s4.876-24.381-4.876-34.133zM371.249 480.866c34.133 0 58.514-29.257 58.514-58.514s-24.381-58.514-58.514-58.514c-34.133 0-58.514 24.381-58.514 58.514s24.381 58.514 58.514 58.514zM1005.154 495.494c0 68.267-53.638 121.905-121.905 121.905-29.257 0-58.514-9.752-78.019-29.257-73.143 43.886-160.914 73.143-263.314 78.019l53.638 195.048 165.79-48.762c0-53.882 43.642-97.524 97.524-97.524s97.524 43.642 97.524 97.524c0 53.882-43.642 97.524-97.524 97.524-34.133 0-68.267-19.505-82.895-48.762l-195.048 48.762c-14.629 4.876-24.381-4.876-29.257-19.505l-58.514-224.305c-97.524-4.876-190.171-34.133-263.314-78.019-19.505 19.505-48.762 29.257-78.019 29.257-68.267 0-121.905-53.638-121.905-121.905 0-43.886 19.505-78.019 53.638-102.4l-4.876-43.886c0-175.543 195.048-316.952 438.857-316.952s438.857 141.41 438.857 316.952l-4.876 43.886c34.133 24.381 53.638 58.514 53.638 102.4z" />
<glyph unicode="&#xe954;" glyph-name="icono-project23" d="M899.762 848.696h-775.524c-53.782 0-96.924-43.142-96.924-96.924v-581.632c0-53.56 43.409-96.968 96.924-96.968h775.524c53.56 0 96.924 43.409 96.924 96.968v581.632c0 53.782-43.587 96.924-96.924 96.924zM899.762 654.803l-387.74-242.332-387.784 242.332v96.968l387.784-242.376 387.74 242.376z" />
<glyph unicode="&#xe955;" glyph-name="icono-project24" d="M153.603 653.902c-84.816 0-153.589-68.475-153.589-152.924v-305.893h204.8v-203.913h614.4v203.913h204.8v305.893c0 84.449-68.772 152.924-153.589 152.924h-716.823zM716.838 93.105h-409.646v254.903h409.646zM870.426 449.988c-28.272 0-51.211 22.84-51.211 50.99s22.939 50.944 51.211 50.944c28.272 0 51.211-22.794 51.211-50.944s-22.939-50.99-51.211-50.99zM819.215 908.805h-614.4v-203.913h614.4z" />
<glyph unicode="&#xe956;" glyph-name="icono-project25" d="M492.968 935.629l-152.332-308.712-340.651-49.493 246.54-240.201-58.222-339.285 304.664 160.183 304.713-160.183-58.222 339.285 246.491 240.201-340.651 49.493z" />
<glyph unicode="&#xe957;" glyph-name="icono-project26" d="M512 806.4c-232.704 0-431.462-144.742-512-349.082 80.538-204.339 279.296-349.082 512-349.082s431.462 144.742 512 349.082c-80.538 204.339-279.296 349.082-512 349.082zM512 224.563c-128.512 0-232.704 104.192-232.704 232.755 0 128.512 104.192 232.704 232.704 232.704s232.704-104.192 232.704-232.704c0-128.563-104.192-232.755-232.704-232.755zM512 596.941c-77.107 0-139.622-62.515-139.622-139.622s62.515-139.622 139.622-139.622c77.107 0 139.622 62.515 139.622 139.622s-62.515 139.622-139.622 139.622z" />
<glyph unicode="&#xe958;" glyph-name="icono-project27" d="M742.4 908.8c-89.088 0-174.592-39.936-230.4-102.552-55.808 62.616-141.312 102.552-230.4 102.552-157.696 0-281.6-118.822-281.6-271.17 0-185.875 174.080-338.223 437.76-568.472l74.24-65.081 74.24 65.081c263.68 230.248 437.76 382.597 437.76 568.472 0 152.348-123.904 271.17-281.6 271.17z" />
<glyph unicode="&#xe959;" glyph-name="icono-project28" d="M1024 857.6v-921.6l-204.8 204.8h-716.8c-56.576 0-102.4 45.824-102.4 102.4v614.4c0 56.576 45.824 102.4 102.4 102.4h819.2c56.576 0 102.4-45.824 102.4-102.4zM204.8 345.6h614.4v102.4h-614.4v-102.4zM204.8 499.2h614.4v102.4h-614.4v-102.4zM204.8 652.8h614.4v102.4h-614.4v-102.4z" />
<glyph unicode="&#xe95a;" glyph-name="icono-project29" d="M217.305-42.359c68.377-10.199 151.842 5.423 243.011 10.84 17.014-3.823 34.028-6.376 51.684-6.376 17.977 0 35.633 2.554 53.289 6.695 237.233-11.477 422.139-78.11 422.139 401.39 0 325.512-212.835 589.81-475.429 589.81s-475.429-264.299-475.429-589.81c0-261.748 50.4-363.451 132.26-398.839 15.088-7.014 31.46-11.159 48.474-13.709zM141.545 554.147c49.758-68.546 178.807-53.88 290.201 32.838 28.25 21.998 52.968 47.185 72.871 72.69 2.568-0.319 5.136-0.638 7.704-1.275 10.915-1.913 20.866-5.739 32.102-9.246 9.955-4.782 20.866-8.608 30.497-14.666 9.955-5.101 18.94-12.115 27.929-18.173 8.025-7.014 17.014-13.709 23.755-21.361 7.059-7.014 13.804-14.666 18.937-21.998 5.778-7.014 9.955-14.347 14.125-20.723s7.701-12.115 9.631-17.216c4.815-9.883 7.701-15.622 7.701-15.622s-0.963 6.058-2.886 17.216c-0.642 5.739-2.247 12.115-4.173 19.767-1.929 7.652-4.176 16.578-8.025 25.505-3.21 9.246-7.704 18.81-12.841 29.012-4.815 10.202-11.878 20.085-18.622 30.925-8.025 9.883-15.409 20.723-25.039 30.288-8.989 10.202-19.903 18.81-30.497 28.056-9.952 7.014-20.542 14.666-31.778 20.723 4.815 9.883 8.664 20.085 11.874 29.65 39.806-17.854 80.579-40.49 112.999-72.69 119.101-118.281 72.229-255.691 164.044-164.828 14.446 14.347 26.32 29.331 35.633 44.315 3.21 0 6.42 0.319 8.989-0.319 12.52-3.188 20.545-12.753 25.039-20.404 12.52-20.723 15.412-50.692 7.704-80.661-11.557-44.634-41.090-71.096-64.846-73.965l-19.261-2.551-5.133-18.81c-45.585-164.19-168.535-338.902-307.536-338.902s-261.63 174.711-307.536 338.902l-5.136 18.81-19.261 2.551c-23.434 3.188-53.289 29.65-64.846 73.965-7.704 29.969-4.815 59.937 7.704 80.661 2.889 5.739 9.31 13.071 17.977 17.535z" />
<glyph unicode="&#xe95b;" glyph-name="icono-project30" d="M853.333 82.286h-682.667v536.381h682.667zM707.048 960v-97.524h-390.095v97.524h-97.524v-97.524h-48.762c-54.126 0-97.524-43.398-97.524-97.524v-682.667c0-53.861 43.663-97.524 97.524-97.524h682.667c53.861 0 97.524 43.663 97.524 97.524v682.667c0 54.126-43.886 97.524-97.524 97.524h-48.762v97.524zM505.042 536.233l139.328-145.588h-278.656zM505.042 167.222l-139.328 145.588h278.656z" />
<glyph unicode="&#xe95c;" glyph-name="icono-project31" d="M489.844-64c135.26 0 453.273 150.762 453.273 512.005 0.006 282.768-41.209 511.995-453.273 511.995-412.059 0-453.273-229.227-453.273-512 0-361.238 318.013-512 453.273-512zM104.316 533.449c31.84 57.030 100.712 122.935 248.827 120.011 0 0 88.282-198.326 521.696-109.263 1.749-31.68 2.299-64.004 2.299-96.198 0-176.574-84.183-285.982-154.81-346.668-88.988-76.471-187.788-104.226-232.484-104.226s-143.496 27.754-232.484 104.226c-70.627 60.686-154.81 170.094-154.81 346.668 0.006 28.564 0.454 57.228 1.766 85.449z" />
<glyph unicode="&#xe95d;" glyph-name="action" d="M779.815 711.089c7.877 18.905-1.575 40.96-18.905 48.837-18.905 7.877-40.96-1.575-48.837-18.905-6.302-15.754-1.575-33.083 9.452-42.535l-15.754-39.385c-14.178-33.083-53.563-50.412-86.646-36.234-45.686 18.905-97.674-1.575-116.578-47.262l-4.726-12.603c-28.357 11.028-97.674 34.658-110.277 4.726l-28.357-67.742c-74.043-12.603-138.634-61.44-166.991-130.757-45.686-111.852 6.302-239.458 118.154-286.72 111.852-45.686 239.458 4.726 285.145 116.578 29.932 69.317 20.48 149.662-23.631 211.102l28.357 67.742c12.603 28.357-53.563 61.44-80.345 74.043l4.726 12.603c14.178 33.083 53.563 50.412 86.646 36.234 45.686-18.905 97.674 1.575 116.578 47.262l15.754 39.385c14.178 0 29.932 9.452 36.234 23.631zM488.369 540.948l-11.028-25.206c-1.575 1.575-3.151 1.575-4.726 1.575 0 0 0 1.575-1.575 1.575-4.726 1.575-7.877 4.726-12.603 6.302-1.575 0-1.575 1.575-1.575 1.575-4.726 1.575-7.877 4.726-11.028 6.302-1.575 0-1.575 1.575-1.575 1.575-3.151 1.575-6.302 4.726-9.452 4.726v0c-3.151 1.575-4.726 3.151-7.877 4.726 0 0 0 0-1.575 1.575s-4.726 3.151-6.302 4.726c0 0-1.575 0-1.575 1.575-1.575 1.575-3.151 3.151-4.726 4.726 0 0 0 0-1.575 1.575s-1.575 1.575-3.151 3.151v0c12.603-1.575 40.96-4.726 80.345-20.48zM398.572 537.797c0-1.575 1.575-1.575 0 0 1.575-1.575 3.151-3.151 4.726-4.726 0 0 0 0 1.575 0 1.575-1.575 1.575-1.575 4.726-3.151l1.575-1.575c1.575-1.575 3.151-1.575 4.726-3.151 0 0 1.575 0 1.575-1.575 1.575-1.575 3.151-1.575 4.726-3.151l1.575-1.575c-1.575 0 1.575 0 1.575 0l1.575-1.575c1.575-1.575 3.151-1.575 4.726-3.151 0 0 0 0 1.575 0 1.575-1.575 3.151-1.575 4.726-3.151l1.575-1.575c1.575-1.575 3.151-1.575 4.726-1.575 0 0 1.575 0 1.575-1.575 1.575-1.575 3.151-1.575 4.726-3.151 0 0 1.575 0 1.575-1.575 1.575-1.575 1.575-1.575 4.726-1.575 0 0 1.575 0 1.575-1.575 1.575-1.575 3.151-1.575 4.726-1.575v0c1.575-1.575 3.151-1.575 4.726-1.575 0 0 1.575 0 1.575-1.575 1.575 0 1.575-1.575 3.151-1.575 0 0 0 0 1.575 0s1.575-1.575 3.151-1.575c0 0 0 0 1.575 0s1.575-1.575 1.575-1.575v0c1.575 0 1.575 0 1.575-1.575 1.575 0 1.575-1.575 1.575-1.575h1.575c1.575 0 1.575-1.575 3.151-1.575 0 0 0 0 1.575 0 1.575-1.575 3.151-1.575 4.726-1.575h1.575c1.575-1.575 3.151-1.575 4.726-1.575 0 0 1.575 0 1.575-1.575 1.575-1.575 4.726-1.575 7.877-1.575h1.575c1.575-1.575 4.726-1.575 6.302-1.575s1.575 0 1.575-1.575c3.151-1.575 4.726-1.575 7.877-1.575 0 0 0 0 1.575 0 3.151-1.575 4.726-1.575 7.877-1.575 1.575 0 1.575 0 1.575-1.575 1.575-1.575 4.726-1.575 7.877-1.575h1.575c3.151 0 4.726-1.575 7.877-1.575 1.575 0 1.575 0 1.575 0 1.575 0 4.726 0 6.302 0s1.575 0 1.575 0h1.575l-20.48-47.262c-7.877-3.151-40.96 0-91.372 20.48s-75.618 42.535-78.769 50.412l22.055 47.262zM571.865 210.117c-42.535-99.249-155.963-146.511-256.788-105.551s-146.511 155.963-105.551 256.788c25.206 61.44 80.345 105.551 146.511 116.578 15.754-28.357 80.345-56.714 89.797-59.865 7.877-3.151 74.043-29.932 105.551-22.055 39.385-53.563 47.262-126.031 20.48-185.895zM576.591 488.96v0c-1.575 0-3.151 0-4.726 0h-1.575c-1.575 0-3.151 0-6.302 0h-1.575c-1.575 0-4.726 0-7.877 1.575h-1.575c-3.151 0-6.302 1.575-9.452 1.575 0 0 0 0-1.575 0-3.151 1.575-6.302 1.575-11.028 1.575-1.575 0-1.575 0-1.575 0-3.151 1.575-7.877 1.575-12.603 3.151-1.575 0-1.575 0-1.575 1.575-4.726 1.575-7.877 3.151-12.603 4.726-1.575 0-1.575 0-1.575 1.575-1.575 1.575-3.151 1.575-4.726 1.575l11.028 25.206c40.96-17.329 63.015-34.658 69.317-42.535zM732.554 731.569c3.151 7.877 12.603 11.028 18.905 7.877s11.028-12.603 7.877-18.905c-3.151-7.877-12.603-11.028-18.905-7.877s-11.028 11.028-7.877 18.905zM754.867 777.71l20.119 47.938 20.337-8.535-20.119-47.938-20.337 8.535zM704.67 823.179l21.065 6.533 15.399-49.653-21.065-6.533-15.399 49.653zM653.255 773.279l11.939 18.546 43.716-28.141-11.939-18.546-43.716 28.141zM641.414 725.062l51.572 6.545 2.777-21.879-51.572-6.545-2.777 21.879zM767.55 678.296l17.56 13.344 31.453-41.393-17.56-13.344-31.453 41.393zM793.752 702.699l4.876 21.511 50.704-11.494-4.876-21.511-50.704 11.494zM787.332 759.3l46.227 23.79 10.093-19.612-46.227-23.79-10.093 19.612z" />
<glyph unicode="&#xe95e;" glyph-name="adventure" d="M321.378 599.237c-15.754-15.754-15.754-37.809 0-53.563 7.877-7.877 15.754-11.028 26.782-11.028s18.905 3.151 26.782 11.028c15.754 15.754 15.754 37.809 0 53.563-14.178 14.178-39.385 14.178-53.563 0zM356.037 564.578v0c-4.726-4.726-12.603-4.726-17.329 0s-4.726 12.603 0 17.329c3.151 3.151 4.726 3.151 9.452 3.151 3.151 0 6.302-1.575 9.452-3.151 3.151-4.726 3.151-12.603-1.575-17.329zM645.908 274.708c-15.754-15.754-15.754-37.809 0-53.563 7.877-7.877 15.754-11.028 26.782-11.028 9.452 0 18.905 3.151 26.782 11.028v0c15.754 15.754 15.754 37.809 0 53.563s-37.809 15.754-53.563 0zM680.566 240.049c-4.726-4.726-12.603-4.726-17.329 0s-4.726 12.603 0 17.329c3.151 3.151 4.726 3.151 9.452 3.151 3.151 0 6.302-1.575 9.452-3.151 4.726-4.726 4.726-12.603-1.575-17.329zM475.766 583.483c200.074 91.372 248.911 252.062 252.062 259.938 1.575 3.151 0 7.877-1.575 11.028s-6.302 4.726-11.028 3.151l-115.003-26.782c-1.575 0-3.151-1.575-6.302-3.151l-184.32-181.169c-15.754 11.028-34.658 15.754-55.138 15.754-26.782 0-51.988-11.028-70.892-29.932s-29.932-42.535-29.932-70.892 11.028-51.988 29.932-70.892l252.062-252.062c0-1.575 1.575-1.575 1.575-1.575 4.726-4.726 6.302-9.452 6.302-15.754 0-1.575 0-6.302-3.151-11.028s-7.877-3.151-11.028-3.151c-4.726 0-11.028 3.151-15.754 6.302-7.877 7.877-18.905 12.603-29.932 14.178s-22.055-1.575-29.932-9.452c-15.754-15.754-12.603-40.96 4.726-58.289 7.877-7.877 11.028-20.48 4.726-25.206s-17.329-3.151-25.206 4.726c-17.329 17.329-42.535 20.48-58.289 4.726s-12.603-40.96 4.726-58.289c4.726-4.726 6.302-9.452 6.302-15.754 0-1.575 0-6.302-3.151-11.028-3.151-3.151-7.877-3.151-11.028-3.151-4.726 0-11.028 3.151-15.754 6.302-4.726 4.726-11.028 4.726-15.754 0s-4.726-11.028 0-15.754c7.877-7.877 18.905-12.603 29.932-14.178 1.575 0 3.151 0 4.726 0 9.452 0 18.905 3.151 25.206 11.028 6.302 6.302 11.028 18.905 9.452 29.932s-6.302 20.48-14.178 29.932c-7.877 7.877-11.028 20.48-4.726 25.206 6.302 6.302 17.329 3.151 25.206-4.726 9.452-9.452 22.055-14.178 34.658-14.178 9.452 0 18.905 3.151 25.206 9.452 15.754 15.754 12.603 40.96-4.726 58.289-7.877 7.877-11.028 20.48-4.726 25.206 3.151 3.151 7.877 3.151 11.028 3.151 4.726 0 11.028-3.151 15.754-6.302 7.877-7.877 18.905-12.603 29.932-14.178 1.575 0 3.151 0 4.726 0 9.452 0 18.905 3.151 25.206 11.028 3.151 3.151 6.302 7.877 7.877 12.603l34.658-34.658c18.905-18.905 44.111-29.932 70.892-29.932 25.206 0 50.412 9.452 70.892 29.932 18.905 18.905 29.932 42.535 29.932 70.892 0 26.782-11.028 51.988-29.932 70.892l-266.24 267.815zM604.948 810.338l91.372 20.48c-18.905-45.686-81.92-162.265-237.883-230.006v0l-29.932 29.932 176.443 179.594zM723.102 195.938c-29.932-29.932-77.194-29.932-107.126 0l-315.077 315.077c-14.178 14.178-22.055 33.083-22.055 51.988 0 20.48 7.877 37.809 22.055 51.988s33.083 22.055 51.988 22.055 37.809-7.877 51.988-22.055l315.077-315.077c14.178-14.178 22.055-33.083 22.055-51.988 3.151-18.905-4.726-36.234-18.905-51.988z" />
<glyph unicode="&#xe95f;" glyph-name="agents" d="M938.4 530.4l-6.4 23.2-17.6-4 6.4-23.2zM844.8 531.2l5.6-22.4 18.4 3.2-6.4 23.2zM896 544.8l-17.6-4 6.4-24 17.6 4zM971.2 296c0 0-72.8-17.6-95.2-22.4-4 0-4.8 0-6.4 0.8-3.2 3.2-6.4 10.4-6.4 13.6l-47.2 212 16 3.2-6.4 23.2-15.2-3.2-24.8 112 117.6 29.6-6.4 22.4-140-36 5.6-23.2-58.4-15.2 1.6-5.6c-12.8 4.8-29.6 12-47.2 18.4l-7.2 27.2c-2.4 4.8-4.8 19.2-11.2 25.6-7.2 8-20.8 10.4-24.8 10.4l-101.6 8c-1.6 0-18.4 2.4-28.8 0s-28.8-13.6-33.6-16.8l-88.8-55.2c-1.6-0.8-20.8-11.2-28.8-15.2-4-1.6-7.2-1.6-10.4-1.6l0.8 4-59.2 15.2 5.6 26.4-146.4 38.4-6.4-22.4 124.8-33.6-76.8-346.4v-1.6c0-3.2-2.4-10.4-6.4-13.6-0.8-0.8-3.2-2.4-6.4-0.8-22.4 4.8-101.6 25.6-102.4 25.6l-2.4-22.4c4-0.8 80.8-21.6 103.2-26.4 2.4-0.8 4.8-0.8 7.2-0.8 6.4 0 12 2.4 16.8 7.2 12 8 15.2 24.8 16.8 28.8l8.8 40.8 59.2-18.4 4 12c0.8 0.8 3.2 11.2 6.4 28 8-3.2 14.4-5.6 19.2-8-2.4-13.6-0.8-30.4 16-40 4.8-3.2 10.4-4 15.2-4 2.4 0 4 0 5.6 0.8 1.6-12 6.4-23.2 20-30.4 5.6-3.2 12-4.8 18.4-4.8 4 0 8 0.8 11.2 2.4 0.8-12 5.6-24.8 18.4-33.6 8-4.8 16.8-8 24.8-8 6.4 0 12.8 1.6 17.6 4 2.4-9.6 8-19.2 20-24 4-1.6 8.8-3.2 13.6-3.2 14.4 0 24.8 9.6 30.4 18.4 9.6-3.2 24.8-6.4 36-6.4 2.4 0 3.2 0 4.8 2.4 11.2 1.6 20.8 9.6 27.2 16 8.8-4 16.8-7.2 25.6-7.2 18.4 0 32.8 17.6 40 26.4 3.2-0.8 5.6-1.6 8.8-1.6 0.8 0 3.2 0 4.8 0.8 15.2 1.6 26.4 10.4 34.4 24.8 2.4 4.8 4 10.4 5.6 14.4 1.6 0 3.2-0.8 4.8-0.8 0.8 0 1.6 0 3.2-0.8 16 2.4 29.6 8.8 38.4 20.8 10.4 12.8 13.6 28.8 12.8 40.8 0.8 0 1.6 0 2.4 0 4 0 8 0 12 0.8 2.4-16.8 5.6-28 5.6-29.6l3.2-11.2 59.2 16.8 9.6-41.6c0-3.2 4-20.8 16.8-28.8 4-3.2 10.4-4.8 16.8-4.8 1.6 0 4.8 0.8 7.2 1.6 22.4 4.8 95.2 22.4 96 22.4l-4.8 23.2zM768 604.8l26.4-117.6c-5.6-5.6-12-12.8-18.4-22.4-3.2 4.8-7.2 12.8-12 26.4-8.8 26.4-23.2 81.6-29.6 105.6l33.6 8zM262.4 604l34.4-8.8c-6.4-23.2-20.8-78.4-29.6-105.6-4-12-8-19.2-11.2-24-6.4 10.4-13.6 18.4-19.2 24l25.6 114.4zM244 338.4l-37.6 11.2 24.8 111.2c9.6-12 18.4-29.6 19.2-50.4 0.8-30.4-4-57.6-6.4-72zM318.4 321.6c-4.8 2.4-6.4 8-4.8 12 2.4-0.8 4-2.4 8-3.2 3.2-2.4 4.8-4 7.2-6.4-2.4-1.6-4-4-6.4-4-1.6 0.8-3.2 0.8-4 1.6zM365.6 285.6c-2.4 0-4.8 0.8-7.2 2.4-9.6 4.8-9.6 16-7.2 23.2 4-0.8 10.4-3.2 15.2-6.4 6.4-4 10.4-8 12-11.2-2.4-4-8-8-12.8-8zM408 250.4c-4 3.2-10.4 8.8-8 23.2 0.8 4 1.6 7.2 3.2 10.4 4.8-1.6 12-4.8 19.2-8.8 8-8 13.6-14.4 15.2-18.4-4-4-11.2-10.4-18.4-10.4-4 0-7.2 0.8-11.2 4zM470.4 222.4c-0.8 0-1.6 0-4 0.8-7.2 3.2-7.2 10.4-7.2 16.8 3.2 0 7.2-0.8 10.4-3.2 4.8-2.4 8-4.8 10.4-7.2-2.4-4-5.6-7.2-9.6-7.2zM717.6 321.6c-4.8-6.4-12-10.4-22.4-11.2-4.8 0-15.2 1.6-32 18.4-10.4 8.8-37.6 41.6-47.2 54.4l-18.4-15.2c1.6-2.4 36-44 48.8-56 5.6-4.8 12-10.4 20-15.2-0.8-4-2.4-8.8-3.2-12-4-8-9.6-12-17.6-13.6-7.2-0.8-17.6 6.4-21.6 8.8l-51.2 46.4-16.8-17.6 51.2-46.4c0.8 0 2.4-1.6 4.8-3.2-5.6-6.4-12.8-12.8-18.4-12.8-16.8 0-44 23.2-58.4 38.4l-17.6-16.8c2.4-2.4 14.4-15.2 30.4-27.2-3.2-3.2-7.2-6.4-9.6-6.4-5.6-0.8-24 2.4-38.4 7.2-4 4-9.6 9.6-20 15.2-7.2 3.2-13.6 4.8-19.2 5.6-2.4 6.4-8.8 16.8-22.4 28.8-18.4 15.2-40.8 17.6-41.6 17.6h-3.2c-4 4-8.8 8.8-15.2 13.6-11.2 8-23.2 10.4-30.4 11.2-3.2 4-8 9.6-15.2 14.4-9.6 6.4-19.2 8.8-25.6 8.8v0c0 0-15.2 6.4-35.2 15.2 0.8 11.2 1.6 24 0.8 36.8-0.8 12-3.2 23.2-6.4 32.8 6.4 5.6 14.4 17.6 22.4 39.2 8.8 26.4 22.4 76 28.8 101.6 2.4 0 4.8-0.8 7.2-0.8 6.4 0 13.6 0.8 20 4 8.8 4 29.6 16.8 30.4 16.8l89.6 56c8.8 7.2 21.6 12 24.8 13.6 4.8 0.8 16.8 0 22.4 0l100-8c3.2-0.8 8-1.6 8.8-3.2 2.4-1.6 4-8 4.8-14.4l2.4-10.4c-25.6 9.6-48 19.2-57.6 22.4-25.6 10.4-44 2.4-52-4.8-8-4.8-68.8-44.8-84-59.2-18.4-17.6-23.2-59.2-24.8-66.4-0.8-3.2-4-23.2-7.2-51.2-3.2-29.6-3.2-43.2 23.2-47.2 18.4-3.2 51.2 4 62.4 28.8 10.4 20.8 18.4 41.6 22.4 53.6 7.2 0.8 17.6 3.2 28 8 6.4 3.2 11.2 6.4 15.2 8.8 51.2-54.4 125.6-131.2 159.2-163.2v0c7.2-7.2 8-10.4 8.8-18.4 4-5.6 1.6-16.8-4-25.6zM746.4 369.6c-1.6 1.6-5.6 4.8-11.2 10.4-0.8 0.8-1.6 1.6-2.4 2.4v0c-32.8 32-112.8 115.2-165.6 169.6l-10.4 12-8-13.6c-0.8-0.8-4.8-6.4-16.8-12-11.2-4.8-26.4-6.4-26.4-6.4h-8l-3.2-7.2c0 0-11.2-32-23.2-58.4-6.4-12-26.4-17.6-37.6-15.2-2.4 0-4 0.8-4.8 0.8-0.8 4 0 15.2 0.8 20.8 2.4 29.6 6.4 50.4 6.4 50.4v0.8c2.4 13.6 8 43.2 17.6 52 12 11.2 62.4 44.8 80.8 57.6h0.8l0.8 0.8c0.8 0.8 10.4 7.2 28 0.8 22.4-8 123.2-47.2 150.4-58.4 7.2-27.2 19.2-70.4 27.2-95.2 8-23.2 16.8-35.2 23.2-40.8-4-9.6-6.4-20.8-6.4-32.8 0-14.4 0.8-28 1.6-40-5.6 0-11.2 0-13.6 1.6zM788.8 337.6c-3.2 14.4-7.2 41.6-6.4 71.2 0.8 20 9.6 36.8 18.4 49.6l24.8-110.4-36.8-10.4zM142.4 364.8l-5.6-24 17.6-4 5.6 24zM124 368.8l-17.6 4-4.8-24 16.8-4zM88.8 376.8l-16.8 4-5.6-23.2 17.6-4zM904 325.6c22.4 0 40.8 18.4 40.8 40.8s-18.4 40.8-40.8 40.8-40.8-18.4-40.8-40.8 18.4-40.8 40.8-40.8zM904 383.2c9.6 0 16.8-7.2 16.8-16.8 0-8.8-7.2-16.8-16.8-16.8s-16.8 7.2-16.8 16.8c0.8 9.6 8 16.8 16.8 16.8z" />
</font>
</defs>
</svg>
